<svg width="64" height="36" viewBox="0 0 64 36" fill="none" xmlns="http://www.w3.org/2000/svg">
<path d="M16.7596 6.65457H18.4084V11.9069C18.3463 11.9246 18.2444 11.9468 18.1026 11.9734C17.9607 12 17.8145 12.0133 17.6638 12.0133C17.389 12.0133 17.1673 11.9335 16.9989 11.7739C16.8393 11.6055 16.7596 11.3883 16.7596 11.1224V6.65457ZM18.4084 9.2608L16.7596 9.2475V4.81957C16.7596 4.54476 16.8393 4.32757 16.9989 4.16801C17.1673 4.00844 17.389 3.92866 17.6638 3.92866C17.8145 3.92866 17.9607 3.94196 18.1026 3.96855C18.2444 3.99515 18.3463 4.01731 18.4084 4.03504V9.2608ZM17.6638 8.54275V7.21304H21.6662C21.7105 7.2751 21.7504 7.36375 21.7859 7.47899C21.8302 7.59423 21.8523 7.71833 21.8523 7.85131C21.8523 8.08179 21.7992 8.25465 21.6928 8.36989C21.5864 8.48513 21.4401 8.54275 21.254 8.54275H17.6638ZM17.6638 12.0133V10.6703H22.1316C22.167 10.7323 22.2025 10.821 22.238 10.9362C22.2823 11.0515 22.3044 11.18 22.3044 11.3218C22.3044 11.5523 22.2513 11.7252 22.1449 11.8404C22.0385 11.9557 21.8922 12.0133 21.7061 12.0133H17.6638ZM17.6638 5.28497V3.92866H22.0651C22.1094 3.99071 22.1493 4.07936 22.1848 4.1946C22.2202 4.30985 22.238 4.43395 22.238 4.56692C22.238 4.79741 22.1848 4.9747 22.0784 5.09881C21.9809 5.22291 21.8346 5.28497 21.6396 5.28497H17.6638ZM27.1813 5.29826H27.1148C26.9995 5.61739 26.871 5.98085 26.7292 6.38862C26.5962 6.7964 26.4543 7.22191 26.3036 7.66515C26.1529 8.09952 26.0111 8.52059 25.8781 8.92837L25.692 9.75279C25.6388 9.92122 25.5812 10.1074 25.5191 10.3113C25.4659 10.5152 25.4039 10.7235 25.333 10.9362C25.2709 11.1401 25.2089 11.3351 25.1468 11.5213C25.0936 11.7075 25.0449 11.8715 25.0005 12.0133C24.9119 12.0399 24.8144 12.0621 24.708 12.0798C24.6105 12.1064 24.4908 12.1197 24.349 12.1197C24.0653 12.1197 23.8393 12.0665 23.6708 11.9601C23.5113 11.8449 23.4315 11.6764 23.4315 11.4548C23.4315 11.3573 23.4448 11.2554 23.4714 11.149C23.5068 11.0426 23.5423 10.9229 23.5777 10.79C23.6664 10.4974 23.7861 10.134 23.9368 9.6996C24.0875 9.25637 24.2515 8.77767 24.4288 8.26352C24.6061 7.74936 24.7878 7.23077 24.9739 6.70775C25.169 6.18474 25.3507 5.69718 25.5191 5.24507C25.6876 4.78411 25.8338 4.39849 25.9579 4.08823C26.0643 4.02617 26.2283 3.96855 26.4499 3.91536C26.6715 3.86218 26.8976 3.83558 27.1281 3.83558C27.4295 3.83558 27.7043 3.87991 27.9525 3.96855C28.2096 4.0572 28.3691 4.19904 28.4312 4.39406C28.6173 4.88162 28.8168 5.4401 29.0296 6.06949C29.2423 6.69889 29.4595 7.35488 29.6811 8.03746C29.9027 8.72005 30.1155 9.3849 30.3194 10.032C30.5233 10.6792 30.705 11.2642 30.8646 11.7872C30.7759 11.8848 30.6518 11.9645 30.4922 12.0266C30.3415 12.0886 30.1642 12.1197 29.9604 12.1197C29.6678 12.1197 29.4551 12.0665 29.3221 11.9601C29.198 11.8449 29.1005 11.672 29.0296 11.4415L28.4844 9.6996L28.3115 8.84859C28.1697 8.39649 28.0278 7.95325 27.886 7.51888C27.753 7.07564 27.6245 6.66343 27.5004 6.28225C27.3763 5.90106 27.2699 5.57307 27.1813 5.29826ZM24.9473 10.0719L25.5723 8.75551H28.8966L29.1492 10.0719H24.9473ZM33.8747 7.83801H34.9783C35.5014 7.83801 35.918 7.72277 36.2283 7.49228C36.5385 7.2618 36.6937 6.92051 36.6937 6.46841C36.6937 6.02517 36.5385 5.68831 36.2283 5.45783C35.918 5.22735 35.4615 5.1121 34.8587 5.1121C34.6814 5.1121 34.5085 5.12097 34.3401 5.1387C34.1717 5.14756 34.0165 5.16529 33.8747 5.19189V7.83801ZM35.098 9.15442H32.1992V4.59352C32.1992 4.43395 32.2436 4.30984 32.3322 4.2212C32.4297 4.13255 32.5538 4.06163 32.7045 4.00844C32.9882 3.9198 33.3206 3.85331 33.7018 3.80899C34.0919 3.76466 34.4864 3.7425 34.8853 3.7425C36.0554 3.7425 36.9286 3.98628 37.5048 4.47384C38.0899 4.95254 38.3824 5.61296 38.3824 6.45511C38.3824 6.98699 38.245 7.45682 37.9702 7.8646C37.7042 8.27238 37.3275 8.59151 36.8399 8.82199C36.3524 9.04361 35.7717 9.15442 35.098 9.15442ZM34.872 8.72891L36.3081 8.3167C36.5297 8.60924 36.7557 8.90621 36.9862 9.20761C37.2256 9.50015 37.4516 9.78825 37.6644 10.0719C37.886 10.3467 38.081 10.5994 38.2494 10.8299C38.4267 11.0603 38.5641 11.2509 38.6616 11.4016C38.5996 11.6232 38.4799 11.7961 38.3026 11.9202C38.1342 12.0443 37.948 12.1064 37.7441 12.1064C37.4782 12.1064 37.2699 12.0488 37.1192 11.9335C36.9773 11.8094 36.8399 11.6454 36.707 11.4415L34.872 8.72891ZM32.1992 8.56935H33.888V11.9734C33.8171 12 33.7063 12.0222 33.5556 12.0399C33.4137 12.0665 33.263 12.0798 33.1035 12.0798C32.7843 12.0798 32.5538 12.0222 32.412 11.9069C32.2702 11.7828 32.1992 11.5789 32.1992 11.2953V8.56935ZM40.1593 5.72377L41.6619 5.68388C41.6974 6.02074 41.724 6.37533 41.7417 6.74765C41.7683 7.11997 41.7816 7.48785 41.7816 7.85131C41.7904 8.21476 41.7949 8.56492 41.7949 8.90178V11.9867C41.7328 12.0044 41.6264 12.0222 41.4757 12.0399C41.3339 12.0665 41.1921 12.0798 41.0502 12.0798C40.7311 12.0798 40.5006 12.0266 40.3588 11.9202C40.2258 11.805 40.1593 11.6055 40.1593 11.3218V5.72377ZM47.0073 10.1783L45.4915 10.2182C45.4205 9.5356 45.3807 8.87075 45.3718 8.22362C45.3629 7.56763 45.3585 6.93381 45.3585 6.32214V3.92866C45.4383 3.91093 45.5447 3.88877 45.6776 3.86218C45.8195 3.83558 45.9702 3.82229 46.1297 3.82229C46.44 3.82229 46.6616 3.87991 46.7946 3.99515C46.9364 4.11039 47.0073 4.30541 47.0073 4.58022V10.1783ZM47.0073 9.63312V11.7872C46.901 11.8759 46.7591 11.9468 46.5818 12C46.4045 12.0621 46.2006 12.0931 45.9702 12.0931C45.6954 12.0931 45.4471 12.0488 45.2255 11.9601C45.0128 11.8715 44.831 11.6764 44.6803 11.375L42.7257 7.8779C42.6193 7.66515 42.5041 7.44353 42.3799 7.21304C42.2647 6.98256 42.1539 6.75651 42.0475 6.53489C41.9411 6.31327 41.8436 6.10939 41.755 5.92323L40.1593 6.29555V4.2079C40.2568 4.08379 40.3987 3.99071 40.5848 3.92866C40.7799 3.86661 40.9882 3.83558 41.2098 3.83558C41.4757 3.83558 41.7195 3.87991 41.9411 3.96855C42.1628 4.0572 42.3489 4.24779 42.4996 4.54033L44.4543 8.03746C44.5695 8.25022 44.6848 8.47184 44.8 8.70232C44.9241 8.9328 45.0349 9.15885 45.1324 9.38047C45.2388 9.60209 45.3319 9.80598 45.4117 9.99214L47.0073 9.63312Z" fill="white"/>
<g filter="url(#filter0_i_1_6043)">
<path d="M11.3878 26.4223C10.7089 26.1909 10.0917 25.9594 9.53625 25.728C8.98079 25.4811 8.50249 25.188 8.10133 24.8485C7.70016 24.5091 7.38386 24.1079 7.15242 23.645C6.93641 23.1667 6.82841 22.5881 6.82841 21.9093C6.82841 20.5978 7.32986 19.5486 8.33276 18.7617C9.3511 17.9748 10.7706 17.5813 12.5912 17.5813C13.2547 17.5813 13.8719 17.6276 14.4428 17.7202C15.0136 17.8128 15.4997 17.9594 15.9008 18.1599C16.3174 18.3451 16.6414 18.592 16.8729 18.9005C17.1043 19.1937 17.22 19.5409 17.22 19.942C17.22 20.3432 17.1275 20.6903 16.9423 20.9835C16.7572 21.2612 16.5334 21.5004 16.2711 21.701C15.9317 21.4849 15.4765 21.2998 14.9056 21.1455C14.3348 20.9758 13.7099 20.8909 13.031 20.8909C12.3367 20.8909 11.8275 20.9912 11.5035 21.1918C11.1795 21.3769 11.0175 21.6161 11.0175 21.9093C11.0175 22.1407 11.1177 22.3336 11.3183 22.4878C11.5189 22.6267 11.8198 22.7579 12.2209 22.8813L13.4476 23.2747C14.8979 23.7376 16.0088 24.3316 16.7803 25.0568C17.5672 25.7666 17.9606 26.7386 17.9606 27.973C17.9606 29.2844 17.4438 30.3491 16.41 31.1668C15.3762 31.9691 13.8564 32.3703 11.8506 32.3703C11.1409 32.3703 10.4774 32.3086 9.86026 32.1852C9.25852 32.0771 8.72621 31.9151 8.26333 31.6991C7.81588 31.4677 7.46101 31.19 7.19871 30.8659C6.95184 30.5265 6.82841 30.1408 6.82841 29.7088C6.82841 29.2613 6.95956 28.8833 7.22186 28.5747C7.48415 28.2507 7.7696 28.0038 8.07818 27.8341C8.5102 28.1735 9.0348 28.4667 9.65197 28.7136C10.2846 28.9604 10.9712 29.0839 11.7118 29.0839C12.4678 29.0839 13.0001 28.9681 13.3087 28.7367C13.6173 28.5053 13.7716 28.2353 13.7716 27.9267C13.7716 27.6181 13.6482 27.3866 13.4013 27.2324C13.1544 27.0626 12.8073 26.9006 12.3598 26.7463L11.3878 26.4223ZM23.2302 18.3914C23.4925 18.2371 23.886 18.0905 24.4106 17.9516C24.9506 17.8128 25.4906 17.7433 26.0306 17.7433C26.8021 17.7433 27.481 17.8591 28.0673 18.0905C28.669 18.3065 29.0548 18.6537 29.2245 19.132C29.5022 19.9343 29.8031 20.8678 30.1271 21.9324C30.4511 22.997 30.7751 24.1002 31.0991 25.242C31.4232 26.3683 31.7395 27.4869 32.048 28.5978C32.3566 29.6933 32.6266 30.6654 32.8581 31.514C32.6729 31.73 32.3952 31.8997 32.0249 32.0231C31.6546 32.162 31.2149 32.2314 30.7057 32.2314C30.3354 32.2314 30.0191 32.2006 29.7568 32.1389C29.5099 32.0771 29.3016 31.9846 29.1319 31.8611C28.9776 31.7377 28.8465 31.5757 28.7385 31.3751C28.6459 31.1745 28.561 30.9431 28.4839 30.6808L28.0673 29.0839H23.8782C23.7548 29.5467 23.6314 30.0251 23.5079 30.5188C23.3845 31.0125 23.2611 31.4908 23.1376 31.9537C22.9216 32.0309 22.6902 32.0926 22.4433 32.1389C22.2119 32.2006 21.9264 32.2314 21.587 32.2314C20.8001 32.2314 20.2138 32.1003 19.8281 31.838C19.4578 31.5603 19.2726 31.1822 19.2726 30.7039C19.2726 30.4879 19.3035 30.2719 19.3652 30.0559C19.4269 29.8399 19.4963 29.5853 19.5735 29.2922C19.6815 28.8756 19.8281 28.3587 20.0132 27.7415C20.2138 27.1243 20.4298 26.4609 20.6612 25.7511C20.8927 25.026 21.1395 24.2854 21.4018 23.5293C21.6641 22.7733 21.911 22.0635 22.1425 21.4001C22.3739 20.7212 22.5822 20.1195 22.7673 19.5949C22.9679 19.0703 23.1222 18.6691 23.2302 18.3914ZM26.0075 21.3769C25.7915 22.025 25.5446 22.7501 25.2669 23.5525C25.0046 24.3394 24.7654 25.1417 24.5494 25.9594H27.4193C27.2033 25.1263 26.9795 24.3162 26.7481 23.5293C26.5321 22.727 26.3315 22.0095 26.1463 21.3769H26.0075ZM33.2931 21.2149C33.1851 21.0452 33.0848 20.8138 32.9922 20.5206C32.8997 20.2275 32.8534 19.9189 32.8534 19.5949C32.8534 18.9931 32.9845 18.5611 33.2468 18.2988C33.5246 18.0365 33.8794 17.9054 34.3114 17.9054H44.4022C44.5102 18.0751 44.6105 18.3065 44.7031 18.5997C44.7956 18.8928 44.8419 19.2014 44.8419 19.5254C44.8419 20.1272 44.7031 20.5592 44.4253 20.8215C44.163 21.0838 43.8159 21.2149 43.3839 21.2149H40.8149V31.9074C40.6452 31.9537 40.3752 32 40.0049 32.0463C39.65 32.0926 39.2951 32.1157 38.9402 32.1157C38.5854 32.1157 38.2691 32.0849 37.9913 32.0231C37.729 31.9769 37.5053 31.8843 37.3202 31.7454C37.135 31.6066 36.9961 31.4137 36.9036 31.1668C36.811 30.92 36.7647 30.5959 36.7647 30.1948V21.2149H33.2931ZM50.6013 26.4223C49.9224 26.1909 49.3053 25.9594 48.7498 25.728C48.1944 25.4811 47.7161 25.188 47.3149 24.8485C46.9137 24.5091 46.5974 24.1079 46.366 23.645C46.15 23.1667 46.042 22.5881 46.042 21.9093C46.042 20.5978 46.5434 19.5486 47.5463 18.7617C48.5647 17.9748 49.9842 17.5813 51.8048 17.5813C52.4683 17.5813 53.0854 17.6276 53.6563 17.7202C54.2272 17.8128 54.7132 17.9594 55.1144 18.1599C55.531 18.3451 55.855 18.592 56.0864 18.9005C56.3179 19.1937 56.4336 19.5409 56.4336 19.942C56.4336 20.3432 56.341 20.6903 56.1559 20.9835C55.9707 21.2612 55.747 21.5004 55.4847 21.701C55.1453 21.4849 54.6901 21.2998 54.1192 21.1455C53.5483 20.9758 52.9234 20.8909 52.2445 20.8909C51.5502 20.8909 51.0411 20.9912 50.7171 21.1918C50.393 21.3769 50.231 21.6161 50.231 21.9093C50.231 22.1407 50.3313 22.3336 50.5319 22.4878C50.7325 22.6267 51.0334 22.7579 51.4345 22.8813L52.6611 23.2747C54.1115 23.7376 55.2224 24.3316 55.9939 25.0568C56.7808 25.7666 57.1742 26.7386 57.1742 27.973C57.1742 29.2844 56.6573 30.3491 55.6236 31.1668C54.5898 31.9691 53.07 32.3703 51.0642 32.3703C50.3545 32.3703 49.691 32.3086 49.0738 32.1852C48.4721 32.0771 47.9398 31.9151 47.4769 31.6991C47.0295 31.4677 46.6746 31.19 46.4123 30.8659C46.1654 30.5265 46.042 30.1408 46.042 29.7088C46.042 29.2613 46.1731 28.8833 46.4354 28.5747C46.6977 28.2507 46.9832 28.0038 47.2918 27.8341C47.7238 28.1735 48.2484 28.4667 48.8655 28.7136C49.4981 28.9604 50.1847 29.0839 50.9253 29.0839C51.6814 29.0839 52.2137 28.9681 52.5223 28.7367C52.8309 28.5053 52.9852 28.2353 52.9852 27.9267C52.9852 27.6181 52.8617 27.3866 52.6149 27.2324C52.368 27.0626 52.0208 26.9006 51.5734 26.7463L50.6013 26.4223Z" fill="#FCCB21"/>
</g>
<defs>
<filter id="filter0_i_1_6043" x="6.0473" y="15.2381" width="51.1269" height="17.1323" filterUnits="userSpaceOnUse" color-interpolation-filters="sRGB">
<feFlood flood-opacity="0" result="BackgroundImageFix"/>
<feBlend mode="normal" in="SourceGraphic" in2="BackgroundImageFix" result="shape"/>
<feColorMatrix in="SourceAlpha" type="matrix" values="0 0 0 0 0 0 0 0 0 0 0 0 0 0 0 0 0 0 127 0" result="hardAlpha"/>
<feOffset dx="-0.781069" dy="-3.90535"/>
<feGaussianBlur stdDeviation="1.1716"/>
<feComposite in2="hardAlpha" operator="arithmetic" k2="-1" k3="1"/>
<feColorMatrix type="matrix" values="0 0 0 0 0 0 0 0 0 0 0 0 0 0 0 0 0 0 0.25 0"/>
<feBlend mode="normal" in2="shape" result="effect1_innerShadow_1_6043"/>
</filter>
</defs>
</svg>
