<svg width="61" height="54" viewBox="0 0 61 54" fill="none" xmlns="http://www.w3.org/2000/svg">
<path d="M36.3343 43H25.6676V28.0659C25.6676 27.783 25.78 27.5116 25.9801 27.3116C26.1801 27.1115 26.4514 26.9991 26.7343 26.9991H35.2676C35.5505 26.9991 35.8219 27.1115 36.0219 27.3116C36.2219 27.5116 36.3343 27.783 36.3343 28.0659V43ZM45.9343 43H36.3343V37.8442C36.3343 37.5613 36.4467 37.2899 36.6467 37.0899C36.8468 36.8898 37.1181 36.7774 37.401 36.7774H45.9343C46.2172 36.7774 46.4885 36.8898 46.6886 37.0899C46.8886 37.2899 47.001 37.5613 47.001 37.8442V41.9333C47.001 42.2162 46.8886 42.4875 46.6886 42.6876C46.4885 42.8876 46.2172 43 45.9343 43ZM25.6676 43V34.2884C25.6676 34.0055 25.5553 33.7342 25.3552 33.5341C25.1552 33.3341 24.8839 33.2217 24.601 33.2217H16.0676C15.7847 33.2217 15.5134 33.3341 15.3134 33.5341C15.1134 33.7342 15.001 34.0055 15.001 34.2884V41.9333C15.001 42.2162 15.1134 42.4875 15.3134 42.6876C15.5134 42.8876 15.7847 43 16.0676 43H25.6676ZM28.8783 14.7549L30.4943 11.329C30.5379 11.231 30.609 11.1478 30.6989 11.0895C30.7889 11.0311 30.8938 11 31.001 11C31.1082 11 31.2131 11.0311 31.303 11.0895C31.3929 11.1478 31.464 11.231 31.5076 11.329L33.1254 14.7549L36.7379 15.3079C37.2019 15.379 37.3868 15.9763 37.0508 16.3177L34.4374 18.9845L35.0543 22.75C35.1325 23.2336 34.649 23.6034 34.233 23.3741L31.001 21.5962L27.769 23.3741C27.3548 23.6016 26.8694 23.2336 26.9476 22.75L27.5645 18.9845L24.9512 16.3177C24.6134 15.9763 24.8001 15.379 25.2623 15.3079L28.8783 14.7549Z" fill="white"/>
<path d="M36.3343 43H25.6676M36.3343 43V28.0659C36.3343 27.783 36.2219 27.5116 36.0219 27.3116C35.8219 27.1115 35.5505 26.9991 35.2676 26.9991H26.7343C26.4514 26.9991 26.1801 27.1115 25.9801 27.3116C25.78 27.5116 25.6676 27.783 25.6676 28.0659V43M36.3343 43H45.9343C46.2172 43 46.4885 42.8876 46.6886 42.6876C46.8886 42.4875 47.001 42.2162 47.001 41.9333V37.8442C47.001 37.5613 46.8886 37.2899 46.6886 37.0899C46.4885 36.8898 46.2172 36.7774 45.9343 36.7774H37.401C37.1181 36.7774 36.8468 36.8898 36.6467 37.0899C36.4467 37.2899 36.3343 37.5613 36.3343 37.8442V43ZM25.6676 43V34.2884C25.6676 34.0055 25.5553 33.7342 25.3552 33.5341C25.1552 33.3341 24.8839 33.2217 24.601 33.2217H16.0676C15.7847 33.2217 15.5134 33.3341 15.3134 33.5341C15.1134 33.7342 15.001 34.0055 15.001 34.2884V41.9333C15.001 42.2162 15.1134 42.4875 15.3134 42.6876C15.5134 42.8876 15.7847 43 16.0676 43H25.6676ZM28.8783 14.7549L30.4943 11.329C30.5379 11.231 30.609 11.1478 30.6989 11.0895C30.7889 11.0311 30.8938 11 31.001 11C31.1082 11 31.2131 11.0311 31.303 11.0895C31.3929 11.1478 31.464 11.231 31.5076 11.329L33.1254 14.7549L36.7379 15.3079C37.2019 15.379 37.3868 15.9763 37.0508 16.3177L34.4374 18.9845L35.0543 22.75C35.1325 23.2336 34.649 23.6034 34.233 23.3741L31.001 21.5962L27.769 23.3741C27.3548 23.6016 26.8694 23.2336 26.9476 22.75L27.5645 18.9845L24.9512 16.3177C24.6134 15.9763 24.8001 15.379 25.2623 15.3079L28.8783 14.7549Z" stroke="#003DBE" stroke-width="0.421875" stroke-linecap="round" stroke-linejoin="round"/>
</svg>
