<svg width="269" height="271" viewBox="0 0 269 271" fill="none" xmlns="http://www.w3.org/2000/svg">
<g clip-path="url(#clip0_43_11975)">
<path d="M21.2958 66.1584L85.3078 66.1584L112.208 39.0709H159.781L197.142 1.74759L196.768 1.49794L159.656 38.6964H112.083L85.1833 65.784L21.2958 65.784V66.1584Z" fill="#91919F"/>
<path d="M21.4206 64.4109C20.5488 64.4109 19.8016 65.1598 19.8016 66.0336C19.8016 66.9074 20.5488 67.6564 21.4206 67.6564C22.2923 67.6564 23.0396 66.9074 23.0396 66.0336C23.0396 65.035 22.2923 64.4109 21.4206 64.4109Z" fill="#91919F"/>
<path d="M195.772 0.499359C196.395 -0.124778 197.391 -0.124778 198.014 0.499359C198.637 1.12349 198.637 2.12212 198.014 2.74625C197.391 3.37039 196.395 3.37039 195.772 2.74625C195.15 2.12212 195.15 1.12349 195.772 0.499359Z" fill="#91919F"/>
<path d="M218.936 269.627H262.15V269.252H219.185L195.399 245.286H147.825L120.801 218.323H55.4189L31.3833 194.231L31.0096 194.481L55.2944 218.697H120.676L147.576 245.785H195.149L218.936 269.627Z" fill="#91919F"/>
<path d="M32.3797 193.233C31.757 192.609 30.7607 192.609 30.138 193.233C29.5153 193.857 29.5153 194.855 30.138 195.48C30.7607 196.104 31.757 196.104 32.3797 195.48C33.0024 194.855 33.0024 193.857 32.3797 193.233Z" fill="#91919F"/>
<path d="M260.532 269.377C260.532 268.481 261.256 267.754 262.151 267.754C263.045 267.754 263.77 268.481 263.77 269.377C263.77 270.273 263.045 271 262.151 271C261.256 271 260.532 270.273 260.532 269.377Z" fill="#91919F"/>
<path d="M1.74358 97.8646L23.5376 76.0198H98.3843L120.801 53.5509H150.939L162.895 65.6592H254.18V65.1599H163.144L151.064 53.0516H120.676L98.2598 75.5205H23.2885L1.49451 97.4901L1.74358 97.8646Z" fill="#91919F"/>
<path d="M0.000310898 97.6149C0.000310898 96.7187 0.725157 95.9922 1.6193 95.9922C2.51343 95.9922 3.23828 96.7187 3.23828 97.6149C3.23828 98.5112 2.51343 99.2377 1.6193 99.2377C0.725157 99.2377 0.000310898 98.5112 0.000310898 97.6149Z" fill="#91919F"/>
<path d="M252.437 65.4095C252.437 64.5132 253.162 63.7867 254.056 63.7867C254.95 63.7867 255.675 64.5132 255.675 65.4095C255.675 66.3057 254.95 67.0322 254.056 67.0322C253.162 67.0322 252.437 66.3057 252.437 65.4095Z" fill="#91919F"/>
<path d="M61.272 212.83H86.6775L105.358 194.106H142.097L160.279 175.882H214.951V175.382H160.154L141.847 193.732H105.234L86.4285 212.456H61.521L35.7419 186.742L35.4928 186.991L61.272 212.83Z" fill="#91919F"/>
<path d="M36.8631 185.743C36.2404 185.119 35.2441 185.119 34.6214 185.743C33.9987 186.367 33.9987 187.366 34.6214 187.99C35.2441 188.614 36.2404 188.614 36.8631 187.99C37.4857 187.366 37.4857 186.367 36.8631 185.743Z" fill="#91919F"/>
<path d="M213.332 175.632C213.332 174.736 214.057 174.009 214.951 174.009C215.845 174.009 216.57 174.736 216.57 175.632C216.57 176.528 215.845 177.255 214.951 177.255C214.057 177.255 213.332 176.528 213.332 175.632Z" fill="#91919F"/>
<path d="M4.4832 108.1L25.779 86.755L97.0142 86.755L120.925 62.7882H142.719L160.154 80.3888H228.774V79.8895H160.404L142.844 62.4137H120.676L96.8897 86.3805L25.53 86.3805L4.10959 107.726L4.4832 108.1Z" fill="#91919F"/>
<path d="M228.775 81.762C229.646 81.762 230.394 81.013 230.394 80.1392C230.394 79.2654 229.646 78.5165 228.775 78.5165C227.903 78.5165 227.156 79.2654 227.156 80.1392C227.156 81.013 227.903 81.762 228.775 81.762Z" fill="#91919F"/>
<path d="M5.47976 108.974C4.85708 109.598 3.8608 109.598 3.23811 108.974C2.61543 108.35 2.61543 107.352 3.23811 106.727C3.8608 106.103 4.85708 106.103 5.47976 106.727C6.10245 107.352 6.10245 108.35 5.47976 108.974Z" fill="#91919F"/>
<path d="M64.5101 191.984H95.5198L131.387 156.034H205.486L223.295 173.884L223.668 173.635L205.611 155.535H131.262L95.3953 191.61H64.7592L47.0749 173.884H15.318V174.384H46.9504L64.5101 191.984Z" fill="#91919F"/>
<path d="M15.4425 172.511C14.5708 172.511 13.8236 173.26 13.8236 174.134C13.8236 175.008 14.5708 175.757 15.4425 175.757C16.3143 175.757 17.0615 175.008 17.0615 174.134C17.0615 173.26 16.3143 172.511 15.4425 172.511Z" fill="#91919F"/>
<path d="M224.54 172.511C225.163 173.135 225.163 174.134 224.54 174.758C223.918 175.382 222.921 175.382 222.299 174.758C221.676 174.134 221.676 173.135 222.299 172.511C222.921 172.012 223.918 172.012 224.54 172.511Z" fill="#91919F"/>
<path d="M57.6606 199.349H74.7222V198.975H57.9097L38.4819 179.502L38.2328 179.751L57.6606 199.349Z" fill="#91919F"/>
<path d="M39.4783 178.628C38.8556 178.004 37.8593 178.004 37.2366 178.628C36.6139 179.252 36.6139 180.251 37.2366 180.875C37.8593 181.499 38.8556 181.499 39.4783 180.875C40.101 180.251 40.101 179.252 39.4783 178.628Z" fill="#91919F"/>
<path d="M73.1033 199.1C73.1033 198.203 73.8282 197.477 74.7223 197.477C75.6165 197.477 76.3413 198.203 76.3413 199.1C76.3413 199.996 75.6165 200.722 74.7223 200.722C73.8282 200.722 73.1033 199.996 73.1033 199.1Z" fill="#91919F"/>
<path d="M4.48312 120.708L27.2734 97.8646H91.5345L113.079 76.2695H148.822L167.502 94.9936H244.715L267.63 72.0254L267.381 71.7757L244.591 94.6191H167.627L149.071 75.895H112.955L91.41 97.4901H27.1489L4.10953 120.458L4.48312 120.708Z" fill="#91919F"/>
<path d="M3.23811 119.46C2.61543 120.084 2.61543 121.082 3.23811 121.707C3.8608 122.331 4.85708 122.331 5.47976 121.707C6.10245 121.082 6.10245 120.084 5.47976 119.46C4.85708 118.836 3.8608 118.836 3.23811 119.46Z" fill="#91919F"/>
<path d="M266.26 70.9019C266.883 70.2778 267.879 70.2778 268.502 70.9019C269.124 71.5261 269.124 72.5247 268.502 73.1488C267.879 73.773 266.883 73.773 266.26 73.1488C265.637 72.5247 265.637 71.5261 266.26 70.9019Z" fill="#91919F"/>
<path d="M14.0725 125.202L32.6285 106.603H90.1646L112.706 84.1336H147.452L175.846 112.469L176.095 112.22L147.701 83.6343H112.457L90.0401 106.228H32.3795L13.6989 124.952L14.0725 125.202Z" fill="#91919F"/>
<path d="M12.8274 123.829C12.2048 124.453 12.2048 125.451 12.8274 126.076C13.4501 126.7 14.4464 126.7 15.0691 126.076C15.6918 125.451 15.6918 124.453 15.0691 123.829C14.4464 123.329 13.4501 123.329 12.8274 123.829Z" fill="#91919F"/>
<path d="M174.227 112.345C174.227 111.448 174.952 110.722 175.846 110.722C176.74 110.722 177.465 111.448 177.465 112.345C177.465 113.241 176.74 113.967 175.846 113.967C174.952 113.967 174.227 113.241 174.227 112.345Z" fill="#91919F"/>
<path d="M76.7146 181.124H98.2595L139.357 139.931H248.451V139.557H139.232L98.135 180.75H76.8391L61.5211 165.396H19.8012L1.74332 147.296L1.49425 147.546L19.5521 165.771H61.272L76.7146 181.124Z" fill="#91919F"/>
<path d="M2.73953 146.298C2.11684 145.673 1.12054 145.673 0.497859 146.298C-0.124827 146.922 -0.124827 147.92 0.497859 148.544C1.12054 149.169 2.11684 149.169 2.73953 148.544C3.36221 147.92 3.36221 146.922 2.73953 146.298Z" fill="#91919F"/>
<path d="M248.451 138.184C249.323 138.184 250.07 138.933 250.07 139.807C250.07 140.68 249.323 141.429 248.451 141.429C247.58 141.429 246.832 140.68 246.832 139.807C246.832 138.933 247.58 138.184 248.451 138.184Z" fill="#91919F"/>
<path d="M97.2636 131.818H111.834V131.443H97.3882L84.0627 118.087H34.1234V118.461H83.8136L97.2636 131.818Z" fill="#91919F"/>
<path d="M34.2482 116.713C33.3764 116.713 32.6292 117.462 32.6292 118.336C32.6292 119.21 33.3764 119.959 34.2482 119.959C35.12 119.959 35.8672 119.21 35.8672 118.336C35.8672 117.338 35.12 116.713 34.2482 116.713Z" fill="#91919F"/>
<path d="M110.216 131.568C110.216 130.672 110.94 129.945 111.835 129.945C112.729 129.945 113.454 130.672 113.454 131.568C113.454 132.464 112.729 133.191 111.835 133.191C110.94 133.191 110.216 132.464 110.216 131.568Z" fill="#91919F"/>
<path d="M98.1354 118.711L118.559 98.239H148.075V97.8645H118.435L97.8863 118.461L98.1354 118.711Z" fill="#91919F"/>
<path d="M97.0145 117.338C96.3918 117.962 96.3918 118.96 97.0145 119.585C97.6371 120.209 98.6334 120.209 99.2561 119.585C99.8788 118.96 99.8788 117.962 99.2561 117.338C98.6334 116.713 97.5126 116.713 97.0145 117.338Z" fill="#91919F"/>
<path d="M148.075 96.4914C148.947 96.4914 149.694 97.2404 149.694 98.1142C149.694 98.988 148.947 99.7369 148.075 99.7369C147.203 99.7369 146.456 98.988 146.456 98.1142C146.456 97.1156 147.203 96.4914 148.075 96.4914Z" fill="#91919F"/>
<path d="M111.834 120.708L126.156 106.478H152.184V105.978H125.907L111.585 120.458L111.834 120.708Z" fill="#91919F"/>
<path d="M110.091 120.583C110.091 119.687 110.815 118.96 111.71 118.96C112.604 118.96 113.329 119.687 113.329 120.583C113.329 121.479 112.604 122.206 111.71 122.206C110.815 122.206 110.091 121.479 110.091 120.583Z" fill="#91919F"/>
<path d="M150.565 106.228C150.565 105.332 151.29 104.605 152.184 104.605C153.078 104.605 153.803 105.332 153.803 106.228C153.803 107.124 153.078 107.851 152.184 107.851C151.29 107.851 150.565 107.124 150.565 106.228Z" fill="#91919F"/>
<path d="M247.082 180.625V181H228.899V180.625H247.082Z" fill="#91919F"/>
<path d="M227.405 180.875C227.405 179.978 228.129 179.252 229.024 179.252C229.918 179.252 230.643 179.978 230.643 180.875C230.643 181.771 229.918 182.497 229.024 182.497C228.129 182.497 227.405 181.771 227.405 180.875Z" fill="#91919F"/>
<path d="M247.082 179.252C247.953 179.252 248.701 180.001 248.701 180.875C248.701 181.748 247.953 182.497 247.082 182.497C246.21 182.497 245.463 181.748 245.463 180.875C245.463 180.001 246.21 179.252 247.082 179.252Z" fill="#91919F"/>
<path d="M121.922 183.371L140.353 164.897H199.259V164.522H140.104L121.673 182.997L121.922 183.371Z" fill="#91919F"/>
<path d="M120.801 181.998C120.178 182.622 120.178 183.621 120.801 184.245C121.424 184.869 122.42 184.869 123.043 184.245C123.665 183.621 123.665 182.622 123.043 181.998C122.42 181.374 121.424 181.374 120.801 181.998Z" fill="#91919F"/>
<path d="M197.516 164.647C197.516 163.751 198.241 163.024 199.135 163.024C200.029 163.024 200.754 163.751 200.754 164.647C200.754 165.543 200.029 166.27 199.135 166.27C198.241 166.27 197.516 165.543 197.516 164.647Z" fill="#91919F"/>
<path d="M218.812 258.892H258.788V258.393H218.936L188.549 227.935H153.679L133.877 208.087H96.2672V208.462H133.628L153.554 228.309H188.425L218.812 258.892Z" fill="#91919F"/>
<path d="M94.7728 208.212C94.7728 207.316 95.4976 206.589 96.3918 206.589C97.2859 206.589 98.0107 207.316 98.0107 208.212C98.0107 209.108 97.2859 209.835 96.3918 209.835C95.4976 209.835 94.7728 209.108 94.7728 208.212Z" fill="#91919F"/>
<path d="M258.664 257.019C259.535 257.019 260.283 257.768 260.283 258.642C260.283 259.516 259.535 260.265 258.664 260.265C257.792 260.265 257.045 259.516 257.045 258.642C257.169 257.768 257.792 257.019 258.664 257.019Z" fill="#91919F"/>
<path d="M260.407 212.082L260.781 211.832L237.119 188.115H166.506L152.807 201.846H109.966V202.22H152.932L166.631 188.614H236.994L260.407 212.082Z" fill="#91919F"/>
<path d="M108.347 202.095C108.347 201.199 109.072 200.473 109.966 200.473C110.861 200.473 111.585 201.199 111.585 202.095C111.585 202.991 110.861 203.718 109.966 203.718C109.072 203.718 108.347 202.991 108.347 202.095Z" fill="#91919F"/>
<path d="M261.653 210.833C262.275 211.457 262.275 212.456 261.653 213.08C261.03 213.704 260.034 213.704 259.411 213.08C258.788 212.456 258.788 211.457 259.411 210.833C260.034 210.209 261.03 210.209 261.653 210.833Z" fill="#91919F"/>
<path d="M221.178 237.921H254.18L265.887 226.312L265.513 225.937L254.056 237.546H221.427L196.769 212.83H156.419V213.205H196.52L221.178 237.921Z" fill="#91919F"/>
<path d="M156.543 211.457C155.671 211.457 154.924 212.206 154.924 213.08C154.924 213.954 155.671 214.703 156.543 214.703C157.415 214.703 158.162 213.954 158.162 213.08C158.162 212.206 157.415 211.457 156.543 211.457Z" fill="#91919F"/>
<path d="M264.517 225.064C265.14 224.439 266.136 224.439 266.759 225.064C267.381 225.688 267.381 226.686 266.759 227.31C266.136 227.935 265.14 227.935 264.517 227.31C263.894 226.686 263.894 225.688 264.517 225.064Z" fill="#91919F"/>
<path d="M230.394 221.818H247.082V221.444H230.643L211.838 202.595H170.118V202.969H211.588L230.394 221.818Z" fill="#91919F"/>
<path d="M170.242 201.222C169.371 201.222 168.623 201.97 168.623 202.844C168.623 203.718 169.371 204.467 170.242 204.467C171.114 204.467 171.861 203.718 171.861 202.844C171.737 201.846 171.114 201.222 170.242 201.222Z" fill="#91919F"/>
<path d="M245.463 221.568C245.463 220.672 246.188 219.946 247.082 219.946C247.976 219.946 248.701 220.672 248.701 221.568C248.701 222.465 247.976 223.191 247.082 223.191C246.188 223.191 245.463 222.465 245.463 221.568Z" fill="#91919F"/>
<path d="M264.517 181.249L264.89 181L234.379 150.417H154.426V150.916H234.254L264.517 181.249Z" fill="#91919F"/>
<path d="M154.426 149.044C153.554 149.044 152.807 149.793 152.807 150.667C152.807 151.54 153.554 152.289 154.426 152.289C155.298 152.289 156.045 151.54 156.045 150.667C156.045 149.793 155.298 149.044 154.426 149.044Z" fill="#91919F"/>
<path d="M265.762 180.001C266.385 180.625 266.385 181.624 265.762 182.248C265.139 182.872 264.143 182.872 263.52 182.248C262.898 181.624 262.898 180.625 263.52 180.001C264.143 179.377 265.139 179.377 265.762 180.001Z" fill="#91919F"/>
<path d="M88.9193 167.643H101.747L139.108 130.07H255.301V129.696H138.983L101.498 167.269H89.0438L74.3485 152.539H33.9985L22.1674 140.556L21.7938 140.93L33.7494 152.913H74.0994L88.9193 167.643Z" fill="#91919F"/>
<path d="M23.1638 139.682C22.5412 139.058 21.5449 139.058 20.9222 139.682C20.2995 140.306 20.2995 141.304 20.9222 141.929C21.5449 142.553 22.5412 142.553 23.1638 141.929C23.7865 141.304 23.7865 140.306 23.1638 139.682Z" fill="#91919F"/>
<path d="M253.682 129.945C253.682 129.049 254.407 128.322 255.301 128.322C256.195 128.322 256.92 129.049 256.92 129.945C256.92 130.841 256.195 131.568 255.301 131.568C254.407 131.568 253.682 130.841 253.682 129.945Z" fill="#91919F"/>
<path d="M90.0403 156.159H103.739L139.855 119.959H261.528V119.46H139.731L103.615 155.784H90.2894L79.8283 145.299H37.1121L26.1528 134.439L25.9038 134.689L36.863 145.673H79.5792L90.0403 156.159Z" fill="#91919F"/>
<path d="M27.2737 133.565C26.651 132.941 25.6547 132.941 25.0321 133.565C24.4094 134.189 24.4094 135.188 25.0321 135.812C25.6547 136.436 26.651 136.436 27.2737 135.812C27.8964 135.188 27.8964 134.189 27.2737 133.565Z" fill="#91919F"/>
<path d="M261.403 118.087C262.275 118.087 263.022 118.836 263.022 119.709C263.022 120.583 262.275 121.332 261.403 121.332C260.532 121.332 259.784 120.583 259.784 119.709C259.784 118.836 260.532 118.087 261.403 118.087Z" fill="#91919F"/>
<path d="M90.7875 141.554L91.1611 141.18L77.0884 127.199H33.376V127.574H76.8394L90.7875 141.554Z" fill="#91919F"/>
<path d="M33.3761 125.701C32.5044 125.701 31.7571 126.45 31.7571 127.324C31.7571 128.198 32.5044 128.947 33.3761 128.947C34.2479 128.947 34.9951 128.198 34.9951 127.324C34.9951 126.45 34.2479 125.701 33.3761 125.701Z" fill="#91919F"/>
<path d="M89.2933 141.304C89.2933 140.408 90.0181 139.682 90.9123 139.682C91.8064 139.682 92.5312 140.408 92.5312 141.304C92.5312 142.201 91.8064 142.927 90.9123 142.927C90.0181 142.927 89.2933 142.201 89.2933 141.304Z" fill="#91919F"/>
<path d="M127.028 48.0585L170.118 48.0585L202.996 15.1041L202.622 14.8544L169.869 47.5592L127.028 47.5592V48.0585Z" fill="#91919F"/>
<path d="M127.152 46.1861C126.281 46.1861 125.534 46.9351 125.534 47.8089C125.534 48.6827 126.281 49.4316 127.152 49.4316C128.024 49.4316 128.771 48.6827 128.771 47.8089C128.647 46.9351 128.024 46.1861 127.152 46.1861Z" fill="#91919F"/>
<path d="M201.626 13.8558C202.248 13.2317 203.245 13.2317 203.867 13.8558C204.49 14.4799 204.49 15.4786 203.867 16.1027C203.245 16.7268 202.248 16.7268 201.626 16.1027C201.003 15.4786 201.003 14.4799 201.626 13.8558Z" fill="#91919F"/>
<path d="M184.688 48.433L205.86 27.3372L264.019 27.3372V26.8379L205.611 26.8379L184.439 48.1833L184.688 48.433Z" fill="#91919F"/>
<path d="M183.443 47.1847C182.82 47.8088 182.82 48.8074 183.443 49.4316C184.066 50.0557 185.062 50.0557 185.685 49.4316C186.308 48.8074 186.308 47.8088 185.685 47.1847C185.062 46.5605 184.066 46.5605 183.443 47.1847Z" fill="#91919F"/>
<path d="M264.019 25.4647C264.89 25.4647 265.638 26.2137 265.638 27.0875C265.638 27.9613 264.89 28.7102 264.019 28.7102C263.147 28.7102 262.4 27.9613 262.4 27.0875C262.4 26.2137 263.147 25.4647 264.019 25.4647Z" fill="#91919F"/>
</g>
<defs>
<clipPath id="clip0_43_11975">
<rect width="271" height="269" fill="white" transform="matrix(0 -1 -1 0 269 271)"/>
</clipPath>
</defs>
</svg>
