<svg width="89" height="107" viewBox="0 0 89 107" fill="none" xmlns="http://www.w3.org/2000/svg">
<path fill-rule="evenodd" clip-rule="evenodd" d="M22.4744 43.704C22.5668 43.4332 22.617 43.143 22.617 42.841C22.617 41.3663 21.4215 40.1709 19.9469 40.1709C18.4723 40.1709 17.2769 41.3663 17.2769 42.841C17.2769 44.3156 18.4723 45.511 19.9469 45.511C20.6225 45.511 21.2394 45.2601 21.7097 44.8464L28.0821 49.572L28.2642 49.7071H28.491H36.9589V48.3339H28.7178L22.4744 43.704ZM19.9469 44.0514C19.2784 44.0514 18.7364 43.5095 18.7364 42.841C18.7364 42.1724 19.2784 41.6305 19.9469 41.6305C20.6154 41.6305 21.1574 42.1724 21.1574 42.841C21.1574 43.5095 20.6154 44.0514 19.9469 44.0514Z" fill="white"/>
<path fill-rule="evenodd" clip-rule="evenodd" d="M13.6788 69.9228C13.3758 68.7808 12.3351 67.9392 11.0978 67.9392C9.62316 67.9392 8.42773 69.1346 8.42773 70.6092C8.42773 72.0839 9.62316 73.2793 11.0978 73.2793C12.335 73.2793 13.3757 72.4378 13.6787 71.296H25.9737V69.9228H13.6788ZM11.0978 69.3987C10.4293 69.3987 9.8873 69.9407 9.8873 70.6092C9.8873 71.2778 10.4293 71.8197 11.0978 71.8197C11.7663 71.8197 12.3083 71.2778 12.3083 70.6092C12.3083 69.9407 11.7663 69.3987 11.0978 69.3987Z" fill="white"/>
<path fill-rule="evenodd" clip-rule="evenodd" d="M6.08571 64.2792C5.83866 63.0601 4.76095 62.1423 3.46889 62.1423C1.99425 62.1423 0.798828 63.3377 0.798828 64.8124C0.798828 66.287 1.99425 67.4824 3.46889 67.4824C4.65004 67.4824 5.65206 66.7155 6.00412 65.6524H17.887H18.2639L18.4662 65.3344L21.468 60.6174H33.2208V59.2443H21.0911H20.7142L20.5118 59.5622L17.5101 64.2792H6.08571ZM3.46889 63.6019C2.80035 63.6019 2.25839 64.1438 2.25839 64.8124C2.25839 65.4809 2.80035 66.0229 3.46889 66.0229C4.13742 66.0229 4.67938 65.4809 4.67938 64.8124C4.67938 64.1438 4.13742 63.6019 3.46889 63.6019Z" fill="white"/>
<path fill-rule="evenodd" clip-rule="evenodd" d="M6.35479 50.6993C6.05152 51.8408 5.01102 52.6819 3.77406 52.6819C2.29943 52.6819 1.104 51.4865 1.104 50.0119C1.104 48.5372 2.29943 47.3418 3.77406 47.3418C5.01163 47.3418 6.05254 48.1838 6.35524 49.3261H17.9255H18.2967L18.5 49.6367L21.6915 54.5136H36.8829V55.8868H21.3203H20.949L20.7458 55.5762L17.5542 50.6993H6.35479ZM3.77406 51.2223C3.10553 51.2223 2.56357 50.6804 2.56357 50.0119C2.56357 49.3433 3.10553 48.8014 3.77406 48.8014C4.4426 48.8014 4.98455 49.3433 4.98455 50.0119C4.98455 50.6804 4.4426 51.2223 3.77406 51.2223Z" fill="white"/>
<path fill-rule="evenodd" clip-rule="evenodd" d="M67.2077 43.7039C67.1153 43.4332 67.0652 43.1429 67.0652 42.841C67.0652 41.3663 68.2606 40.1709 69.7352 40.1709C71.2098 40.1709 72.4053 41.3663 72.4053 42.841C72.4053 44.3156 71.2098 45.511 69.7352 45.511C69.0596 45.511 68.4427 45.2601 67.9724 44.8464L61.6 49.572L61.4178 49.7071H61.191H52.7231V48.3339H60.9642L67.2077 43.7039ZM69.7352 44.0514C70.4038 44.0514 70.9457 43.5095 70.9457 42.841C70.9457 42.1724 70.4038 41.6305 69.7352 41.6305C69.0667 41.6305 68.5247 42.1724 68.5247 42.841C68.5247 43.5095 69.0667 44.0514 69.7352 44.0514Z" fill="white"/>
<path fill-rule="evenodd" clip-rule="evenodd" d="M76.0033 69.9228C76.3063 68.7808 77.347 67.9392 78.5843 67.9392C80.059 67.9392 81.2544 69.1346 81.2544 70.6092C81.2544 72.0839 80.059 73.2793 78.5843 73.2793C77.3471 73.2793 76.3064 72.4378 76.0034 71.296H63.7083V69.9228H76.0033ZM78.5843 69.3987C79.2529 69.3987 79.7948 69.9407 79.7948 70.6092C79.7948 71.2778 79.2529 71.8197 78.5843 71.8197C77.9158 71.8197 77.3738 71.2778 77.3738 70.6092C77.3738 69.9407 77.9158 69.3987 78.5843 69.3987Z" fill="white"/>
<path fill-rule="evenodd" clip-rule="evenodd" d="M83.5964 64.2783C83.8434 63.0591 84.9212 62.1413 86.2132 62.1413C87.6879 62.1413 88.8833 63.3368 88.8833 64.8114C88.8833 66.286 87.6879 67.4814 86.2132 67.4814C85.0321 67.4814 84.0301 66.7145 83.678 65.6515H71.795H71.4182L71.2158 65.3335L68.2141 60.6165H56.4613V59.2434H68.591H68.9679L69.1702 59.5613L72.1719 64.2783H83.5964ZM86.2132 63.6009C86.8818 63.6009 87.4237 64.1429 87.4237 64.8114C87.4237 65.4799 86.8818 66.0219 86.2132 66.0219C85.5447 66.0219 85.0028 65.4799 85.0028 64.8114C85.0028 64.1429 85.5447 63.6009 86.2132 63.6009Z" fill="white"/>
<path fill-rule="evenodd" clip-rule="evenodd" d="M83.3273 50.6993C83.6306 51.8408 84.6711 52.6819 85.9081 52.6819C87.3827 52.6819 88.5781 51.4865 88.5781 50.0119C88.5781 48.5372 87.3827 47.3418 85.9081 47.3418C84.6705 47.3418 83.6296 48.1838 83.3269 49.3261H71.7569H71.3857L71.1824 49.6367L67.9909 54.5136H52.7995V55.8868H68.3621H68.7333L68.9366 55.5762L72.1281 50.6993H83.3273ZM85.9081 51.2223C86.5766 51.2223 87.1186 50.6804 87.1186 50.0119C87.1186 49.3433 86.5766 48.8014 85.9081 48.8014C85.2395 48.8014 84.6976 49.3433 84.6976 50.0119C84.6976 50.6804 85.2395 51.2223 85.9081 51.2223Z" fill="white"/>
<path d="M70.8735 80.3766L53.1143 48.0601V29.3795C54.4175 28.6379 55.299 27.236 55.299 25.6331C55.299 23.2588 53.3666 21.3262 50.992 21.3262H39.0078C36.6334 21.3262 34.7009 23.2586 34.7009 25.6331C34.7009 27.236 35.5823 28.6379 36.8855 29.3795V48.0601L19.1263 80.3766C17.7781 82.8285 17.8241 85.7296 19.2486 88.1377C20.673 90.5458 23.1934 91.984 25.9923 91.984H64.0077C66.8064 91.984 69.327 90.546 70.7514 88.1377C72.1755 85.7296 72.2217 82.8285 70.8735 80.3766ZM67.5279 86.2316C66.7839 87.4888 65.4681 88.2389 64.0075 88.2389H25.9921C24.5315 88.2389 23.2158 87.4888 22.4717 86.2316C21.729 84.9746 21.7052 83.4603 22.4081 82.1807L40.6306 49.0215V29.94V27.7935C40.6306 26.9106 39.9149 26.1947 39.0318 26.1947C38.7497 26.1947 38.4925 25.9978 38.4521 25.7187C38.4305 25.5691 38.4664 25.4324 38.5407 25.3209C38.6417 25.1699 38.814 25.0713 39.0076 25.0713H50.9919C51.1854 25.0713 51.3577 25.1699 51.4588 25.3209C51.5235 25.4179 51.5591 25.5339 51.5529 25.6611C51.5384 25.9643 51.2714 26.1949 50.9676 26.1949C50.0847 26.1949 49.3688 26.9108 49.3688 27.7937V29.9402V49.0215L67.5913 82.1807C68.2943 83.4601 68.2706 84.9744 67.5279 86.2316Z" fill="white"/>
<g clip-path="url(#clip0_82_243)">
<path d="M53.0487 2.60003L45.2561 -1.55957L41.0965 6.23307L48.8891 10.3927L53.0487 2.60003Z" fill="url(#paint0_linear_82_243)"/>
<g filter="url(#filter0_d_82_243)">
<path d="M48.3036 4.96782C48.402 5.24943 48.389 5.56901 48.2396 5.8523L48.2108 5.90686C47.9264 6.44611 47.2571 6.65135 46.719 6.36413L46.6952 6.35142L46.2913 6.99834L45.6597 6.6586L46.0687 6.01701L45.8119 5.87994L45.408 6.5227L44.7965 6.14898L45.1854 5.54553L45.0392 5.46746L44.7284 5.3016L45.0598 4.67347L45.3705 4.83932L45.7685 4.08477L46.1 3.45637L46.4585 2.77684L46.1478 2.61101L46.4793 1.98264L46.79 2.14847L46.9363 2.22654L47.3445 1.4945L47.9561 1.83425L47.5628 2.56096L47.8196 2.69803L48.2052 1.93617L48.8317 2.27591L48.4445 3.03539C48.9204 3.32781 49.0956 3.94578 48.8317 4.44602L48.8045 4.49764C48.6902 4.71437 48.511 4.87405 48.3036 4.96782ZM47.5843 5.57243L47.6131 5.51787C47.715 5.32473 47.641 5.08425 47.4484 4.98143L47.3675 4.93824L46.3951 4.41917L45.997 5.17372L46.1302 5.24478L47.0504 5.73598C47.243 5.8388 47.4826 5.76534 47.5843 5.57243ZM47.0851 3.11124L46.7266 3.79079L47.699 4.30986C47.8717 4.40205 48.0867 4.33636 48.178 4.1632L48.2052 4.11158C48.2966 3.9384 48.2302 3.72256 48.0575 3.63035L47.2182 3.18233L47.0851 3.11124Z" fill="white"/>
</g>
</g>
<path d="M66.4985 82.7805L61.083 72.9259C57.8958 74.153 48.5119 76.7222 38.2903 69.6376C38.2903 69.6376 34.3817 66.1672 32.6777 66.0859L23.5023 82.7816C23.0141 83.6705 23.0316 84.7227 23.5472 85.5954C24.0641 86.4679 24.9778 86.9899 25.9928 86.9899H64.0082C65.0231 86.9899 65.9368 86.4679 66.4537 85.5954C66.9689 84.7227 66.9865 83.6705 66.4985 82.7805Z" fill="url(#paint1_linear_82_243)"/>
<path d="M50.6883 71.5079C53.6337 71.5079 56.0213 69.1202 56.0213 66.1749C56.0213 63.2295 53.6337 60.8418 50.6883 60.8418C47.7429 60.8418 45.3552 63.2295 45.3552 66.1749C45.3552 69.1202 47.7429 71.5079 50.6883 71.5079Z" fill="url(#paint2_linear_82_243)"/>
<path d="M42.3241 62.5769C43.8363 62.5769 45.0622 61.3509 45.0622 59.8387C45.0622 58.3265 43.8363 57.1006 42.3241 57.1006C40.8118 57.1006 39.5859 58.3265 39.5859 59.8387C39.5859 61.3509 40.8118 62.5769 42.3241 62.5769Z" fill="url(#paint3_linear_82_243)"/>
<path d="M48.847 59.0676C49.864 59.0676 50.6884 58.2431 50.6884 57.2262C50.6884 56.2092 49.864 55.3848 48.847 55.3848C47.83 55.3848 47.0056 56.2092 47.0056 57.2262C47.0056 58.2431 47.83 59.0676 48.847 59.0676Z" fill="url(#paint4_linear_82_243)"/>
<path d="M47.1139 11.6839C47.1139 10.9664 46.5323 10.3848 45.8148 10.3848C45.0972 10.3848 44.5156 10.9664 44.5156 11.6839C44.5156 12.4014 45.0972 12.983 45.8148 12.983C46.5323 12.983 47.1139 12.4014 47.1139 11.6839Z" fill="url(#paint5_linear_82_243)"/>
<path d="M40.7699 15.2137C41.8164 15.2137 42.6648 14.3653 42.6648 13.3187C42.6648 12.2722 41.8164 11.4238 40.7699 11.4238C39.7234 11.4238 38.875 12.2722 38.875 13.3187C38.875 14.3653 39.7234 15.2137 40.7699 15.2137Z" fill="url(#paint6_linear_82_243)"/>
<path d="M48.4466 17.1553C48.4466 15.7017 47.2682 14.5234 45.8147 14.5234C44.3612 14.5234 43.1829 15.7017 43.1829 17.1553C43.1829 18.6088 44.3612 19.7869 45.8147 19.7869C47.2682 19.7871 48.4466 18.6088 48.4466 17.1553Z" fill="url(#paint7_linear_82_243)"/>
<path d="M15.2093 96.5272H21.2685V97.626H18.7935V103.968H17.6843V97.626H15.2093V96.5272ZM22.2103 96.5272H27.9818V97.626H23.3144V102.864H27.9818V103.968H22.2103V96.5272ZM23.9423 99.5463H27.9818V100.645H23.9423V99.5463ZM29.3474 96.5272H30.4515V103.968H29.3474V96.5272ZM31.9218 96.5272H33.0259V99.5411H33.5753L36.5264 96.5272H38.049L34.4491 100.206L38.274 103.968H36.7305L33.3503 100.645H33.0259V103.968H31.9218V96.5272ZM39.2159 98.6202C39.2159 98.233 39.3153 97.8824 39.5141 97.5685C39.7165 97.251 39.9851 96.9981 40.3199 96.8098C40.6548 96.6214 41.0263 96.5272 41.4345 96.5272H43.1769C43.585 96.5272 43.9565 96.6214 44.2914 96.8098C44.6297 96.9981 44.8983 97.251 45.0972 97.5685C45.296 97.8824 45.3954 98.233 45.3954 98.6202V101.875C45.3954 102.258 45.296 102.609 45.0972 102.927C44.8983 103.244 44.6297 103.497 44.2914 103.685C43.9565 103.874 43.585 103.968 43.1769 103.968H41.4345C41.0263 103.968 40.6548 103.874 40.3199 103.685C39.9851 103.497 39.7165 103.244 39.5141 102.927C39.3153 102.609 39.2159 102.258 39.2159 101.875V98.6202ZM40.3199 101.88C40.3199 102.152 40.4281 102.386 40.6443 102.581C40.8641 102.773 41.1275 102.869 41.4345 102.869H43.1769C43.4873 102.869 43.7507 102.773 43.967 102.581C44.1832 102.386 44.2914 102.152 44.2914 101.88V98.615C44.2914 98.3429 44.1832 98.1109 43.967 97.919C43.7507 97.7237 43.4873 97.626 43.1769 97.626H41.4345C41.1275 97.626 40.8641 97.7237 40.6443 97.919C40.4281 98.1109 40.3199 98.3429 40.3199 98.615V101.88ZM46.8658 96.5272H47.9646V101.885C47.9646 102.157 48.0605 102.389 48.2524 102.581C48.4442 102.773 48.6745 102.869 48.9431 102.869H52.6319V103.968H48.9431C48.5628 103.968 48.214 103.875 47.8966 103.69C47.5826 103.502 47.3314 103.251 47.1431 102.937C46.9582 102.62 46.8658 102.269 46.8658 101.885V96.5272ZM55.7139 96.5272H57.09L59.7533 103.968H58.576L57.765 101.728H55.6877L56.0854 100.629H57.3673L56.4046 97.9714L54.2278 103.968H53.0505L55.7139 96.5272ZM60.7004 96.5272H64.6195C64.9649 96.5272 65.2771 96.6092 65.5562 96.7731C65.8352 96.9371 66.0567 97.1568 66.2207 97.4324C66.3881 97.708 66.4718 98.0167 66.4718 98.3586V98.8452C66.4718 99.3301 66.3323 99.6981 66.0532 99.9492C66.3009 100.11 66.4806 100.302 66.5922 100.525C66.7038 100.745 66.7596 101.02 66.7596 101.352V102.173C66.7596 102.501 66.6759 102.801 66.5085 103.073C66.3445 103.345 66.123 103.563 65.8439 103.727C65.5649 103.888 65.2562 103.968 64.9178 103.968H60.7004V96.5272ZM64.9283 102.864C65.1306 102.864 65.3033 102.796 65.4463 102.66C65.5893 102.52 65.6608 102.353 65.6608 102.157V101.336C65.6608 101.14 65.5893 100.973 65.4463 100.834C65.3033 100.694 65.1288 100.624 64.923 100.624H62.4324V99.5254H64.6195C64.8254 99.5254 65.0015 99.4591 65.148 99.3266C65.298 99.1905 65.373 99.0266 65.373 98.8347V98.3586C65.373 98.1562 65.298 97.9836 65.148 97.8405C65.0015 97.6975 64.8254 97.626 64.6195 97.626H61.8045V102.864H64.9283ZM67.9631 98.3272C67.9631 97.9958 68.0451 97.694 68.209 97.4219C68.3765 97.1499 68.5997 96.9336 68.8788 96.7731C69.1613 96.6092 69.4718 96.5272 69.8102 96.5272H73.6613V97.626H69.8102C69.6078 97.626 69.4334 97.6975 69.2869 97.8405C69.1404 97.9836 69.0671 98.1562 69.0671 98.3586V98.8713C69.0671 99.0562 69.1404 99.2149 69.2869 99.3475C69.4334 99.4801 69.6078 99.5463 69.8102 99.5463H72.1805C72.5223 99.5463 72.8328 99.6283 73.1118 99.7923C73.3909 99.9527 73.6124 100.171 73.7764 100.446C73.9438 100.718 74.0275 101.02 74.0275 101.352V102.163C74.0275 102.494 73.9438 102.797 73.7764 103.073C73.6124 103.345 73.3909 103.563 73.1118 103.727C72.8328 103.888 72.5223 103.968 72.1805 103.968H67.9683V102.864H72.1805C72.3863 102.864 72.5607 102.796 72.7037 102.66C72.8502 102.52 72.9235 102.353 72.9235 102.157V101.357C72.9235 101.161 72.8502 100.994 72.7037 100.854C72.5607 100.715 72.3863 100.645 72.1805 100.645H69.8102C69.4718 100.645 69.1613 100.567 68.8788 100.41C68.5997 100.249 68.3765 100.035 68.209 99.7661C68.0451 99.4975 67.9631 99.201 67.9631 98.8766V98.3272Z" fill="white"/>
<defs>
<filter id="filter0_d_82_243" x="44.4567" y="1.49414" width="4.76991" height="6.0475" filterUnits="userSpaceOnUse" color-interpolation-filters="sRGB">
<feFlood flood-opacity="0" result="BackgroundImageFix"/>
<feColorMatrix in="SourceAlpha" type="matrix" values="0 0 0 0 0 0 0 0 0 0 0 0 0 0 0 0 0 0 127 0" result="hardAlpha"/>
<feOffset dy="0.271794"/>
<feGaussianBlur stdDeviation="0.135897"/>
<feComposite in2="hardAlpha" operator="out"/>
<feColorMatrix type="matrix" values="0 0 0 0 0 0 0 0 0 0 0 0 0 0 0 0 0 0 0.64 0"/>
<feBlend mode="normal" in2="BackgroundImageFix" result="effect1_dropShadow_82_243"/>
<feBlend mode="normal" in="SourceGraphic" in2="effect1_dropShadow_82_243" result="shape"/>
</filter>
<linearGradient id="paint0_linear_82_243" x1="43.1764" y1="2.33698" x2="50.9688" y2="6.49646" gradientUnits="userSpaceOnUse">
<stop stop-color="#FE745D"/>
<stop offset="0.176" stop-color="#FF7E52"/>
<stop offset="0.3436" stop-color="#FD8E44"/>
<stop offset="0.5223" stop-color="#FB9B34"/>
<stop offset="0.6732" stop-color="#FAA02E"/>
<stop offset="0.8128" stop-color="#F9A230"/>
<stop offset="0.9218" stop-color="#F9BF34"/>
<stop offset="1" stop-color="#F8D138"/>
</linearGradient>
<linearGradient id="paint1_linear_82_243" x1="23.1489" y1="76.5383" x2="66.8524" y2="76.5383" gradientUnits="userSpaceOnUse">
<stop stop-color="#FE745D"/>
<stop offset="0.176" stop-color="#FF7E52"/>
<stop offset="0.3436" stop-color="#FD8E44"/>
<stop offset="0.5223" stop-color="#FB9B34"/>
<stop offset="0.6732" stop-color="#FAA02E"/>
<stop offset="0.8128" stop-color="#F9A230"/>
<stop offset="0.9218" stop-color="#F9BF34"/>
<stop offset="1" stop-color="#F8D138"/>
</linearGradient>
<linearGradient id="paint2_linear_82_243" x1="45.3555" y1="66.175" x2="56.0213" y2="66.175" gradientUnits="userSpaceOnUse">
<stop stop-color="#FE745D"/>
<stop offset="0.176" stop-color="#FF7E52"/>
<stop offset="0.3436" stop-color="#FD8E44"/>
<stop offset="0.5223" stop-color="#FB9B34"/>
<stop offset="0.6732" stop-color="#FAA02E"/>
<stop offset="0.8128" stop-color="#F9A230"/>
<stop offset="0.9218" stop-color="#F9BF34"/>
<stop offset="1" stop-color="#F8D138"/>
</linearGradient>
<linearGradient id="paint3_linear_82_243" x1="39.5861" y1="59.8388" x2="45.0622" y2="59.8388" gradientUnits="userSpaceOnUse">
<stop stop-color="#FE745D"/>
<stop offset="0.176" stop-color="#FF7E52"/>
<stop offset="0.3436" stop-color="#FD8E44"/>
<stop offset="0.5223" stop-color="#FB9B34"/>
<stop offset="0.6732" stop-color="#FAA02E"/>
<stop offset="0.8128" stop-color="#F9A230"/>
<stop offset="0.9218" stop-color="#F9BF34"/>
<stop offset="1" stop-color="#F8D138"/>
</linearGradient>
<linearGradient id="paint4_linear_82_243" x1="47.0057" y1="57.2262" x2="50.6884" y2="57.2262" gradientUnits="userSpaceOnUse">
<stop stop-color="#FE745D"/>
<stop offset="0.176" stop-color="#FF7E52"/>
<stop offset="0.3436" stop-color="#FD8E44"/>
<stop offset="0.5223" stop-color="#FB9B34"/>
<stop offset="0.6732" stop-color="#FAA02E"/>
<stop offset="0.8128" stop-color="#F9A230"/>
<stop offset="0.9218" stop-color="#F9BF34"/>
<stop offset="1" stop-color="#F8D138"/>
</linearGradient>
<linearGradient id="paint5_linear_82_243" x1="44.5157" y1="11.684" x2="47.1139" y2="11.684" gradientUnits="userSpaceOnUse">
<stop stop-color="#FE745D"/>
<stop offset="0.176" stop-color="#FF7E52"/>
<stop offset="0.3436" stop-color="#FD8E44"/>
<stop offset="0.5223" stop-color="#FB9B34"/>
<stop offset="0.6732" stop-color="#FAA02E"/>
<stop offset="0.8128" stop-color="#F9A230"/>
<stop offset="0.9218" stop-color="#F9BF34"/>
<stop offset="1" stop-color="#F8D138"/>
</linearGradient>
<linearGradient id="paint6_linear_82_243" x1="38.875" y1="13.3187" x2="42.665" y2="13.3187" gradientUnits="userSpaceOnUse">
<stop stop-color="#FE745D"/>
<stop offset="0.176" stop-color="#FF7E52"/>
<stop offset="0.3436" stop-color="#FD8E44"/>
<stop offset="0.5223" stop-color="#FB9B34"/>
<stop offset="0.6732" stop-color="#FAA02E"/>
<stop offset="0.8128" stop-color="#F9A230"/>
<stop offset="0.9218" stop-color="#F9BF34"/>
<stop offset="1" stop-color="#F8D138"/>
</linearGradient>
<linearGradient id="paint7_linear_82_243" x1="43.183" y1="17.1553" x2="48.4465" y2="17.1553" gradientUnits="userSpaceOnUse">
<stop stop-color="#FE745D"/>
<stop offset="0.176" stop-color="#FF7E52"/>
<stop offset="0.3436" stop-color="#FD8E44"/>
<stop offset="0.5223" stop-color="#FB9B34"/>
<stop offset="0.6732" stop-color="#FAA02E"/>
<stop offset="0.8128" stop-color="#F9A230"/>
<stop offset="0.9218" stop-color="#F9BF34"/>
<stop offset="1" stop-color="#F8D138"/>
</linearGradient>
<clipPath id="clip0_82_243">
<rect x="42.656" width="8.83332" height="8.83332" rx="4.41666" fill="white"/>
</clipPath>
</defs>
</svg>
