<svg width="1299" height="1578" viewBox="0 0 1299 1578" fill="none" xmlns="http://www.w3.org/2000/svg">
<path fill-rule="evenodd" clip-rule="evenodd" d="M320.117 643.858C321.478 639.87 322.217 635.593 322.217 631.143C322.217 609.418 304.606 591.807 282.881 591.807C261.156 591.807 243.544 609.418 243.544 631.143C243.544 652.868 261.156 670.479 282.881 670.479C292.833 670.479 301.922 666.783 308.85 660.689L402.731 730.309L405.415 732.299H408.756H533.509V712.069H412.098L320.117 643.858ZM282.881 648.976C273.032 648.976 265.047 640.992 265.047 631.143C265.047 621.294 273.032 613.31 282.881 613.31C292.73 613.31 300.714 621.294 300.714 631.143C300.714 640.992 292.73 648.976 282.881 648.976Z" fill="url(#paint0_linear_29_3)"/>
<path fill-rule="evenodd" clip-rule="evenodd" d="M190.536 1030.13C186.073 1013.31 170.74 1000.91 152.511 1000.91C130.787 1000.91 113.175 1018.52 113.175 1040.24C113.175 1061.97 130.787 1079.58 152.511 1079.58C170.738 1079.58 186.07 1067.18 190.534 1050.36H371.67V1030.13H190.536ZM152.511 1022.41C142.662 1022.41 134.678 1030.4 134.678 1040.24C134.678 1050.09 142.662 1058.08 152.511 1058.08C162.361 1058.08 170.345 1050.09 170.345 1040.24C170.345 1030.4 162.361 1022.41 152.511 1022.41Z" fill="url(#paint1_linear_29_3)"/>
<path fill-rule="evenodd" clip-rule="evenodd" d="M78.672 946.976C75.0311 929.016 59.1546 915.497 40.1206 915.497C18.3957 915.497 0.78418 933.109 0.78418 954.834C0.78418 976.558 18.3957 994.17 40.1206 994.17C57.523 994.17 72.2861 982.869 77.4717 967.206H252.535H258.087L261.068 962.521L305.291 893.029H478.438V872.799H299.738H294.186L291.205 877.483L246.982 946.976H78.672ZM40.1206 937C30.2714 937 22.2871 944.984 22.2871 954.834C22.2871 964.683 30.2714 972.667 40.1206 972.667C49.9697 972.667 57.954 964.683 57.954 954.834C57.954 944.984 49.9697 937 40.1206 937Z" fill="url(#paint2_linear_29_3)"/>
<path fill-rule="evenodd" clip-rule="evenodd" d="M82.6396 746.908C78.1764 763.732 62.8439 776.131 44.6156 776.131C22.8907 776.131 5.27917 758.519 5.27917 736.794C5.27917 715.07 22.8907 697.458 44.6156 697.458C62.8429 697.458 78.1747 709.855 82.6389 726.678H253.1H258.569L261.563 731.254L308.582 803.103H532.388V823.333H303.113H297.644L294.649 818.757L247.63 746.908H82.6396ZM44.6156 754.628C34.7664 754.628 26.7821 746.644 26.7821 736.794C26.7821 726.945 34.7664 718.961 44.6156 718.961C54.4647 718.961 62.449 726.945 62.449 736.794C62.449 746.644 54.4647 754.628 44.6156 754.628Z" fill="url(#paint3_linear_29_3)"/>
<path fill-rule="evenodd" clip-rule="evenodd" d="M979.145 643.859C977.784 639.87 977.045 635.593 977.045 631.144C977.045 609.419 994.656 591.808 1016.38 591.808C1038.11 591.808 1055.72 609.419 1055.72 631.144C1055.72 652.869 1038.11 670.48 1016.38 670.48C1006.43 670.48 997.339 666.784 990.411 660.69L896.53 730.31L893.846 732.3H890.505H765.752V712.07H887.163L979.145 643.859ZM1016.38 648.977C1026.23 648.977 1034.21 640.993 1034.21 631.144C1034.21 621.295 1026.23 613.311 1016.38 613.311C1006.53 613.311 998.548 621.295 998.548 631.144C998.548 640.993 1006.53 648.977 1016.38 648.977Z" fill="url(#paint4_linear_29_3)"/>
<path fill-rule="evenodd" clip-rule="evenodd" d="M1108.73 1030.13C1113.19 1013.31 1128.52 1000.91 1146.75 1000.91C1168.48 1000.91 1186.09 1018.52 1186.09 1040.24C1186.09 1061.97 1168.48 1079.58 1146.75 1079.58C1128.53 1079.58 1113.19 1067.18 1108.73 1050.36H927.593V1030.13H1108.73ZM1146.75 1022.41C1156.6 1022.41 1164.59 1030.39 1164.59 1040.24C1164.59 1050.09 1156.6 1058.08 1146.75 1058.08C1136.9 1058.08 1128.92 1050.09 1128.92 1040.24C1128.92 1030.39 1136.9 1022.41 1146.75 1022.41Z" fill="url(#paint5_linear_29_3)"/>
<path fill-rule="evenodd" clip-rule="evenodd" d="M1220.59 946.975C1224.23 929.015 1240.11 915.496 1259.14 915.496C1280.87 915.496 1298.48 933.108 1298.48 954.833C1298.48 976.557 1280.87 994.169 1259.14 994.169C1241.74 994.169 1226.98 982.868 1221.79 967.205H1046.73H1041.18L1038.2 962.521L993.973 893.028H820.826V872.798H999.526H1005.08L1008.06 877.482L1052.28 946.975H1220.59ZM1259.14 936.999C1268.99 936.999 1276.98 944.983 1276.98 954.833C1276.98 964.682 1268.99 972.666 1259.14 972.666C1249.29 972.666 1241.31 964.682 1241.31 954.833C1241.31 944.983 1249.29 936.999 1259.14 936.999Z" fill="url(#paint6_linear_29_3)"/>
<path fill-rule="evenodd" clip-rule="evenodd" d="M1216.62 746.908C1221.09 763.732 1236.42 776.131 1254.65 776.131C1276.37 776.131 1293.98 758.519 1293.98 736.794C1293.98 715.07 1276.37 697.458 1254.65 697.458C1236.42 697.458 1221.09 709.855 1216.62 726.678H1046.16H1040.69L1037.7 731.254L990.681 803.103H766.876V823.333H996.15H1001.62L1004.61 818.757L1051.63 746.908H1216.62ZM1254.65 754.628C1264.5 754.628 1272.48 746.644 1272.48 736.794C1272.48 726.945 1264.5 718.961 1254.65 718.961C1244.8 718.961 1236.81 726.945 1236.81 736.794C1236.81 746.644 1244.8 754.628 1254.65 754.628Z" fill="url(#paint7_linear_29_3)"/>
<path d="M1030.68 1184.15L769.044 708.047V432.836C788.244 421.91 801.23 401.257 801.23 377.643C801.23 342.663 772.761 314.191 737.779 314.191H561.222C526.242 314.191 497.77 342.66 497.77 377.643C497.77 401.257 510.756 421.91 529.956 432.836V708.047L268.319 1184.15C248.457 1220.27 249.136 1263.01 270.121 1298.49C291.107 1333.96 328.238 1355.15 369.472 1355.15H929.531C970.763 1355.15 1007.9 1333.97 1028.88 1298.49C1049.86 1263.01 1050.54 1220.27 1030.68 1184.15ZM981.392 1270.4C970.431 1288.93 951.047 1299.98 929.528 1299.98H369.47C347.951 1299.98 328.567 1288.93 317.606 1270.4C306.664 1251.89 306.312 1229.58 316.669 1210.73L585.13 722.211V441.094V409.471C585.13 396.463 574.587 385.917 561.576 385.917C557.42 385.917 553.631 383.016 553.035 378.904C552.716 376.7 553.247 374.687 554.34 373.044C555.829 370.819 558.367 369.365 561.219 369.365H737.776C740.628 369.365 743.166 370.819 744.655 373.044C745.608 374.472 746.133 376.181 746.042 378.055C745.828 382.522 741.894 385.92 737.419 385.92C724.411 385.92 713.865 396.466 713.865 409.474V441.097V722.211L982.326 1210.73C992.683 1229.57 992.334 1251.88 981.392 1270.4Z" fill="#3B6BFF"/>
<g clip-path="url(#clip0_29_3)">
<path d="M768.079 38.2975L653.274 -22.9834L591.993 91.821L706.798 153.102L768.079 38.2975Z" fill="url(#paint8_linear_29_3)"/>
<g filter="url(#filter0_d_29_3)">
<path d="M698.168 73.1849C699.617 77.3337 699.426 82.0419 697.225 86.2154L696.801 87.0192C692.61 94.9637 682.75 97.9873 674.823 93.756L674.472 93.5687L668.522 103.099L659.216 98.0941L665.242 88.642L661.459 86.6227L655.509 96.092L646.499 90.5863L652.229 81.696L650.075 80.5459L645.497 78.1023L650.379 68.8485L654.956 71.2918L660.82 60.1755L665.704 50.9177L670.985 40.9065L666.408 38.4634L671.292 29.206L675.869 31.6491L678.023 32.7992L684.038 22.0146L693.048 27.0199L687.254 37.7261L691.037 39.7454L696.719 28.5214L705.948 33.5266L700.243 44.7156C707.254 49.0236 709.836 58.1278 705.948 65.4976L705.547 66.2581C703.863 69.451 701.222 71.8034 698.168 73.1849ZM687.571 82.0923L687.995 81.2885C689.496 78.443 688.406 74.9002 685.569 73.3854L684.377 72.7492L670.05 65.1021L664.186 76.2184L666.148 77.2653L679.705 84.5017C682.542 86.0165 686.072 84.9343 687.571 82.0923ZM680.216 45.8331L674.935 55.8445L689.261 63.4916C691.805 64.8498 694.972 63.882 696.317 61.331L696.719 60.5705C698.065 58.0191 697.087 54.8392 694.542 53.4808L682.177 46.8804L680.216 45.8331Z" fill="white"/>
</g>
</g>
<path d="M966.223 1219.56L886.44 1074.38C839.485 1092.46 701.237 1130.31 550.648 1025.93C550.648 1025.93 493.065 974.806 467.962 973.608L332.785 1219.58C325.593 1232.67 325.851 1248.17 333.447 1261.03C341.062 1273.88 354.523 1281.57 369.476 1281.57H929.534C944.487 1281.57 957.948 1273.88 965.563 1261.03C973.154 1248.17 973.412 1232.67 966.223 1219.56Z" fill="url(#paint9_linear_29_3)"/>
<path d="M733.303 1053.48C776.695 1053.48 811.872 1018.31 811.872 974.913C811.872 931.521 776.695 896.345 733.303 896.345C689.911 896.345 654.734 931.521 654.734 974.913C654.734 1018.31 689.911 1053.48 733.303 1053.48Z" fill="url(#paint10_linear_29_3)"/>
<path d="M610.077 921.908C632.356 921.908 650.417 903.848 650.417 881.569C650.417 859.29 632.356 841.229 610.077 841.229C587.798 841.229 569.738 859.29 569.738 881.569C569.738 903.848 587.798 921.908 610.077 921.908Z" fill="url(#paint11_linear_29_3)"/>
<path d="M706.176 870.206C721.159 870.206 733.304 858.06 733.304 843.077C733.304 828.095 721.159 815.949 706.176 815.949C691.194 815.949 679.048 828.095 679.048 843.077C679.048 858.06 691.194 870.206 706.176 870.206Z" fill="url(#paint12_linear_29_3)"/>
<path d="M680.642 172.137C680.642 161.565 672.074 152.997 661.503 152.997C650.932 152.997 642.364 161.565 642.364 172.137C642.364 182.708 650.932 191.276 661.503 191.276C672.074 191.276 680.642 182.708 680.642 172.137Z" fill="url(#paint13_linear_29_3)"/>
<path d="M587.18 224.131C602.598 224.131 615.097 211.632 615.097 196.214C615.097 180.797 602.598 168.298 587.18 168.298C571.762 168.298 559.263 180.797 559.263 196.214C559.263 211.632 571.762 224.131 587.18 224.131Z" fill="url(#paint14_linear_29_3)"/>
<path d="M700.277 252.733C700.277 231.319 682.917 213.96 661.503 213.96C640.089 213.96 622.73 231.319 622.73 252.733C622.73 274.148 640.089 291.504 661.503 291.504C682.917 291.507 700.277 274.148 700.277 252.733Z" fill="url(#paint15_linear_29_3)"/>
<path d="M213.083 1426.75H302.35V1442.94H265.888V1536.37H249.546V1442.94H213.083V1426.75ZM316.226 1426.75H401.253V1442.94H332.491V1520.11H401.253V1536.37H316.226V1426.75ZM341.742 1471.23H401.253V1487.42H341.742V1471.23ZM421.372 1426.75H437.638V1536.37H421.372V1426.75ZM459.299 1426.75H475.564V1471.16H483.659L527.136 1426.75H549.568L496.532 1480.95L552.883 1536.37H530.142L480.344 1487.42H475.564V1536.37H459.299V1426.75ZM566.758 1457.59C566.758 1451.88 568.223 1446.72 571.152 1442.09C574.133 1437.42 578.09 1433.69 583.024 1430.92C587.957 1428.14 593.43 1426.75 599.443 1426.75H625.113C631.126 1426.75 636.599 1428.14 641.533 1430.92C646.518 1433.69 650.475 1437.42 653.404 1442.09C656.333 1446.72 657.798 1451.88 657.798 1457.59V1505.54C657.798 1511.19 656.333 1516.36 653.404 1521.03C650.475 1525.71 646.518 1529.43 641.533 1532.21C636.599 1534.98 631.126 1536.37 625.113 1536.37H599.443C593.43 1536.37 587.957 1534.98 583.024 1532.21C578.09 1529.43 574.133 1525.71 571.152 1521.03C568.223 1516.36 566.758 1511.19 566.758 1505.54V1457.59ZM583.024 1505.61C583.024 1509.62 584.617 1513.07 587.803 1515.94C591.041 1518.77 594.921 1520.18 599.443 1520.18H625.113C629.687 1520.18 633.567 1518.77 636.753 1515.94C639.94 1513.07 641.533 1509.62 641.533 1505.61V1457.51C641.533 1453.5 639.94 1450.09 636.753 1447.26C633.567 1444.38 629.687 1442.94 625.113 1442.94H599.443C594.921 1442.94 591.041 1444.38 587.803 1447.26C584.617 1450.09 583.024 1453.5 583.024 1457.51V1505.61ZM679.459 1426.75H695.648V1505.69C695.648 1509.7 697.061 1513.12 699.887 1515.94C702.714 1518.77 706.106 1520.18 710.063 1520.18H764.409V1536.37H710.063C704.461 1536.37 699.322 1535.01 694.646 1532.29C690.02 1529.51 686.32 1525.81 683.545 1521.19C680.821 1516.51 679.459 1511.34 679.459 1505.69V1426.75ZM809.813 1426.75H830.087L869.325 1536.37H851.98L840.031 1503.38H809.428L815.287 1487.19H834.173L819.989 1448.03L787.921 1536.37H770.576L809.813 1426.75ZM883.277 1426.75H941.015C946.103 1426.75 950.703 1427.96 954.814 1430.38C958.925 1432.79 962.189 1436.03 964.604 1440.09C967.071 1444.15 968.304 1448.7 968.304 1453.73V1460.9C968.304 1468.05 966.249 1473.47 962.137 1477.17C965.786 1479.53 968.433 1482.36 970.077 1485.65C971.722 1488.89 972.544 1492.95 972.544 1497.83V1509.93C972.544 1514.76 971.311 1519.18 968.844 1523.19C966.428 1527.2 963.165 1530.41 959.054 1532.83C954.942 1535.19 950.394 1536.37 945.409 1536.37H883.277V1426.75ZM945.564 1520.11C948.544 1520.11 951.088 1519.1 953.195 1517.1C955.302 1515.04 956.356 1512.58 956.356 1509.7V1497.6C956.356 1494.72 955.302 1492.25 953.195 1490.2C951.088 1488.14 948.519 1487.11 945.486 1487.11H908.793V1470.93H941.015C944.047 1470.93 946.643 1469.95 948.801 1468C951.011 1465.99 952.116 1463.58 952.116 1460.75V1453.73C952.116 1450.75 951.011 1448.21 948.801 1446.1C946.643 1444 944.047 1442.94 941.015 1442.94H899.543V1520.11H945.564ZM990.274 1453.27C990.274 1448.39 991.482 1443.94 993.897 1439.94C996.364 1435.93 999.653 1432.74 1003.76 1430.38C1007.93 1427.96 1012.5 1426.75 1017.49 1426.75H1074.22V1442.94H1017.49C1014.5 1442.94 1011.94 1444 1009.78 1446.1C1007.62 1448.21 1006.54 1450.75 1006.54 1453.73V1461.29C1006.54 1464.01 1007.62 1466.35 1009.78 1468.3C1011.94 1470.26 1014.5 1471.23 1017.49 1471.23H1052.41C1057.44 1471.23 1062.02 1472.44 1066.13 1474.86C1070.24 1477.22 1073.5 1480.43 1075.92 1484.49C1078.38 1488.5 1079.62 1492.95 1079.62 1497.83V1509.78C1079.62 1514.66 1078.38 1519.13 1075.92 1523.19C1073.5 1527.2 1070.24 1530.41 1066.13 1532.83C1062.02 1535.19 1057.44 1536.37 1052.41 1536.37H990.351V1520.11H1052.41C1055.44 1520.11 1058.01 1519.1 1060.11 1517.1C1062.27 1515.04 1063.35 1512.58 1063.35 1509.7V1497.91C1063.35 1495.03 1062.27 1492.56 1060.11 1490.51C1058.01 1488.45 1055.44 1487.42 1052.41 1487.42H1017.49C1012.5 1487.42 1007.93 1486.27 1003.76 1483.95C999.653 1481.59 996.364 1478.43 993.897 1474.47C991.482 1470.51 990.274 1466.15 990.274 1461.37V1453.27Z" fill="url(#paint16_linear_29_3)"/>
<defs>
<filter id="filter0_d_29_3" x="641.493" y="22.0146" width="70.2717" height="89.0933" filterUnits="userSpaceOnUse" color-interpolation-filters="sRGB">
<feFlood flood-opacity="0" result="BackgroundImageFix"/>
<feColorMatrix in="SourceAlpha" type="matrix" values="0 0 0 0 0 0 0 0 0 0 0 0 0 0 0 0 0 0 127 0" result="hardAlpha"/>
<feOffset dy="4.00419"/>
<feGaussianBlur stdDeviation="2.00209"/>
<feComposite in2="hardAlpha" operator="out"/>
<feColorMatrix type="matrix" values="0 0 0 0 0 0 0 0 0 0 0 0 0 0 0 0 0 0 0.64 0"/>
<feBlend mode="normal" in2="BackgroundImageFix" result="effect1_dropShadow_29_3"/>
<feBlend mode="normal" in="SourceGraphic" in2="effect1_dropShadow_29_3" result="shape"/>
</filter>
<linearGradient id="paint0_linear_29_3" x1="348.135" y1="568.34" x2="453.951" y2="732.094" gradientUnits="userSpaceOnUse">
<stop stop-color="#68ACFF"/>
<stop offset="0.2291" stop-color="#65A7FF"/>
<stop offset="0.4985" stop-color="#5B99FF"/>
<stop offset="0.787" stop-color="#4A81FF"/>
<stop offset="1" stop-color="#3B6BFF"/>
</linearGradient>
<linearGradient id="paint1_linear_29_3" x1="206.415" y1="1092.72" x2="251.714" y2="981.12" gradientUnits="userSpaceOnUse">
<stop stop-color="#68ACFF"/>
<stop offset="0.2291" stop-color="#65A7FF"/>
<stop offset="0.4985" stop-color="#5B99FF"/>
<stop offset="0.787" stop-color="#4A81FF"/>
<stop offset="1" stop-color="#3B6BFF"/>
</linearGradient>
<linearGradient id="paint2_linear_29_3" x1="173.074" y1="1014.44" x2="234.034" y2="834.562" gradientUnits="userSpaceOnUse">
<stop stop-color="#68ACFF"/>
<stop offset="0.2291" stop-color="#65A7FF"/>
<stop offset="0.4985" stop-color="#5B99FF"/>
<stop offset="0.787" stop-color="#4A81FF"/>
<stop offset="1" stop-color="#3B6BFF"/>
</linearGradient>
<linearGradient id="paint3_linear_29_3" x1="195.408" y1="676.433" x2="255.547" y2="865.259" gradientUnits="userSpaceOnUse">
<stop stop-color="#68ACFF"/>
<stop offset="0.2291" stop-color="#65A7FF"/>
<stop offset="0.4985" stop-color="#5B99FF"/>
<stop offset="0.787" stop-color="#4A81FF"/>
<stop offset="1" stop-color="#3B6BFF"/>
</linearGradient>
<linearGradient id="paint4_linear_29_3" x1="951.127" y1="568.341" x2="845.31" y2="732.096" gradientUnits="userSpaceOnUse">
<stop stop-color="#68ACFF"/>
<stop offset="0.2291" stop-color="#65A7FF"/>
<stop offset="0.4985" stop-color="#5B99FF"/>
<stop offset="0.787" stop-color="#4A81FF"/>
<stop offset="1" stop-color="#3B6BFF"/>
</linearGradient>
<linearGradient id="paint5_linear_29_3" x1="1092.85" y1="1092.72" x2="1047.55" y2="981.118" gradientUnits="userSpaceOnUse">
<stop stop-color="#68ACFF"/>
<stop offset="0.2291" stop-color="#65A7FF"/>
<stop offset="0.4985" stop-color="#5B99FF"/>
<stop offset="0.787" stop-color="#4A81FF"/>
<stop offset="1" stop-color="#3B6BFF"/>
</linearGradient>
<linearGradient id="paint6_linear_29_3" x1="1126.19" y1="1014.44" x2="1065.23" y2="834.561" gradientUnits="userSpaceOnUse">
<stop stop-color="#68ACFF"/>
<stop offset="0.2291" stop-color="#65A7FF"/>
<stop offset="0.4985" stop-color="#5B99FF"/>
<stop offset="0.787" stop-color="#4A81FF"/>
<stop offset="1" stop-color="#3B6BFF"/>
</linearGradient>
<linearGradient id="paint7_linear_29_3" x1="1103.85" y1="676.433" x2="1043.72" y2="865.259" gradientUnits="userSpaceOnUse">
<stop stop-color="#68ACFF"/>
<stop offset="0.2291" stop-color="#65A7FF"/>
<stop offset="0.4985" stop-color="#5B99FF"/>
<stop offset="0.787" stop-color="#4A81FF"/>
<stop offset="1" stop-color="#3B6BFF"/>
</linearGradient>
<linearGradient id="paint8_linear_29_3" x1="622.635" y1="34.4221" x2="737.436" y2="95.7013" gradientUnits="userSpaceOnUse">
<stop stop-color="#FE745D"/>
<stop offset="0.176" stop-color="#FF7E52"/>
<stop offset="0.3436" stop-color="#FD8E44"/>
<stop offset="0.5223" stop-color="#FB9B34"/>
<stop offset="0.6732" stop-color="#FAA02E"/>
<stop offset="0.8128" stop-color="#F9A230"/>
<stop offset="0.9218" stop-color="#F9BF34"/>
<stop offset="1" stop-color="#F8D138"/>
</linearGradient>
<linearGradient id="paint9_linear_29_3" x1="327.579" y1="1127.6" x2="971.436" y2="1127.6" gradientUnits="userSpaceOnUse">
<stop stop-color="#FE745D"/>
<stop offset="0.176" stop-color="#FF7E52"/>
<stop offset="0.3436" stop-color="#FD8E44"/>
<stop offset="0.5223" stop-color="#FB9B34"/>
<stop offset="0.6732" stop-color="#FAA02E"/>
<stop offset="0.8128" stop-color="#F9A230"/>
<stop offset="0.9218" stop-color="#F9BF34"/>
<stop offset="1" stop-color="#F8D138"/>
</linearGradient>
<linearGradient id="paint10_linear_29_3" x1="654.737" y1="974.916" x2="811.871" y2="974.916" gradientUnits="userSpaceOnUse">
<stop stop-color="#FE745D"/>
<stop offset="0.176" stop-color="#FF7E52"/>
<stop offset="0.3436" stop-color="#FD8E44"/>
<stop offset="0.5223" stop-color="#FB9B34"/>
<stop offset="0.6732" stop-color="#FAA02E"/>
<stop offset="0.8128" stop-color="#F9A230"/>
<stop offset="0.9218" stop-color="#F9BF34"/>
<stop offset="1" stop-color="#F8D138"/>
</linearGradient>
<linearGradient id="paint11_linear_29_3" x1="569.74" y1="881.57" x2="650.416" y2="881.57" gradientUnits="userSpaceOnUse">
<stop stop-color="#FE745D"/>
<stop offset="0.176" stop-color="#FF7E52"/>
<stop offset="0.3436" stop-color="#FD8E44"/>
<stop offset="0.5223" stop-color="#FB9B34"/>
<stop offset="0.6732" stop-color="#FAA02E"/>
<stop offset="0.8128" stop-color="#F9A230"/>
<stop offset="0.9218" stop-color="#F9BF34"/>
<stop offset="1" stop-color="#F8D138"/>
</linearGradient>
<linearGradient id="paint12_linear_29_3" x1="679.049" y1="843.078" x2="733.304" y2="843.078" gradientUnits="userSpaceOnUse">
<stop stop-color="#FE745D"/>
<stop offset="0.176" stop-color="#FF7E52"/>
<stop offset="0.3436" stop-color="#FD8E44"/>
<stop offset="0.5223" stop-color="#FB9B34"/>
<stop offset="0.6732" stop-color="#FAA02E"/>
<stop offset="0.8128" stop-color="#F9A230"/>
<stop offset="0.9218" stop-color="#F9BF34"/>
<stop offset="1" stop-color="#F8D138"/>
</linearGradient>
<linearGradient id="paint13_linear_29_3" x1="642.364" y1="172.137" x2="680.643" y2="172.137" gradientUnits="userSpaceOnUse">
<stop stop-color="#FE745D"/>
<stop offset="0.176" stop-color="#FF7E52"/>
<stop offset="0.3436" stop-color="#FD8E44"/>
<stop offset="0.5223" stop-color="#FB9B34"/>
<stop offset="0.6732" stop-color="#FAA02E"/>
<stop offset="0.8128" stop-color="#F9A230"/>
<stop offset="0.9218" stop-color="#F9BF34"/>
<stop offset="1" stop-color="#F8D138"/>
</linearGradient>
<linearGradient id="paint14_linear_29_3" x1="559.263" y1="196.214" x2="615.099" y2="196.214" gradientUnits="userSpaceOnUse">
<stop stop-color="#FE745D"/>
<stop offset="0.176" stop-color="#FF7E52"/>
<stop offset="0.3436" stop-color="#FD8E44"/>
<stop offset="0.5223" stop-color="#FB9B34"/>
<stop offset="0.6732" stop-color="#FAA02E"/>
<stop offset="0.8128" stop-color="#F9A230"/>
<stop offset="0.9218" stop-color="#F9BF34"/>
<stop offset="1" stop-color="#F8D138"/>
</linearGradient>
<linearGradient id="paint15_linear_29_3" x1="622.731" y1="252.733" x2="700.276" y2="252.733" gradientUnits="userSpaceOnUse">
<stop stop-color="#FE745D"/>
<stop offset="0.176" stop-color="#FF7E52"/>
<stop offset="0.3436" stop-color="#FD8E44"/>
<stop offset="0.5223" stop-color="#FB9B34"/>
<stop offset="0.6732" stop-color="#FAA02E"/>
<stop offset="0.8128" stop-color="#F9A230"/>
<stop offset="0.9218" stop-color="#F9BF34"/>
<stop offset="1" stop-color="#F8D138"/>
</linearGradient>
<linearGradient id="paint16_linear_29_3" x1="649.506" y1="1384.39" x2="649.506" y2="1577.35" gradientUnits="userSpaceOnUse">
<stop stop-color="#F8D138"/>
<stop offset="0.0782" stop-color="#F9BF34"/>
<stop offset="0.1872" stop-color="#F9A230"/>
<stop offset="0.3268" stop-color="#FAA02E"/>
<stop offset="0.4777" stop-color="#FB9B34"/>
<stop offset="0.6564" stop-color="#FD8E44"/>
<stop offset="0.824" stop-color="#FF7E52"/>
<stop offset="1" stop-color="#FE745D"/>
</linearGradient>
<clipPath id="clip0_29_3">
<rect x="614.966" width="130.136" height="130.136" rx="65.068" fill="white"/>
</clipPath>
</defs>
</svg>
