<svg width="365" height="492" viewBox="0 0 365 492" fill="none" xmlns="http://www.w3.org/2000/svg">
<g opacity="0.4">
<path d="M683 420C683 595.627 540.627 738 365 738C189.373 738 47 595.627 47 420C47 244.373 189.373 102 365 102C540.627 102 683 244.373 683 420ZM159.392 420C159.392 533.554 251.446 625.608 365 625.608C478.554 625.608 570.608 533.554 570.608 420C570.608 306.446 478.554 214.392 365 214.392C251.446 214.392 159.392 306.446 159.392 420Z" fill="#03499D" fill-opacity="0.45"/>
<path d="M64.9688 231.812C64.9688 232.202 64.8533 232.583 64.637 232.906C64.4206 233.23 64.1131 233.482 63.7534 233.631C63.3937 233.78 62.9978 233.819 62.6159 233.743C62.234 233.667 61.8832 233.48 61.6079 233.205C61.3325 232.929 61.145 232.578 61.0691 232.197C60.9931 231.815 61.0321 231.419 61.1811 231.059C61.3301 230.699 61.5825 230.392 61.9062 230.176C62.23 229.959 62.6106 229.844 63 229.844C63.5221 229.844 64.0229 230.051 64.3921 230.42C64.7613 230.79 64.9688 231.29 64.9688 231.812ZM55.125 229.844C54.7356 229.844 54.355 229.959 54.0312 230.176C53.7075 230.392 53.4551 230.699 53.3061 231.059C53.1571 231.419 53.1181 231.815 53.1941 232.197C53.27 232.578 53.4575 232.929 53.7329 233.205C54.0082 233.48 54.359 233.667 54.7409 233.743C55.1228 233.819 55.5187 233.78 55.8784 233.631C56.2381 233.482 56.5456 233.23 56.762 232.906C56.9783 232.583 57.0938 232.202 57.0938 231.812C57.0938 231.29 56.8863 230.79 56.5171 230.42C56.1479 230.051 55.6471 229.844 55.125 229.844ZM70.875 229.844C70.4856 229.844 70.105 229.959 69.7812 230.176C69.4575 230.392 69.2051 230.699 69.0561 231.059C68.9071 231.419 68.8681 231.815 68.9441 232.197C69.02 232.578 69.2075 232.929 69.4829 233.205C69.7582 233.48 70.109 233.667 70.4909 233.743C70.8728 233.819 71.2687 233.78 71.6284 233.631C71.9881 233.482 72.2956 233.23 72.512 232.906C72.7283 232.583 72.8438 232.202 72.8438 231.812C72.8438 231.29 72.6363 230.79 72.2671 230.42C71.8979 230.051 71.3971 229.844 70.875 229.844ZM90.5625 202.281C90.5731 205.276 89.8196 208.224 88.3734 210.847C86.9271 213.469 84.8359 215.679 82.2974 217.268L79.0982 220.468C80.2703 223.016 80.8208 225.806 80.7043 228.609C80.5879 231.411 79.808 234.146 78.4286 236.588C77.0492 239.031 75.1098 241.111 72.7699 242.657C70.4299 244.204 67.7563 245.173 64.9688 245.485V249.531C64.9688 249.921 64.8533 250.301 64.637 250.625C64.4207 250.949 64.1132 251.201 63.7534 251.35C63.3937 251.499 62.9978 251.538 62.6159 251.462C62.234 251.386 61.8832 251.199 61.6078 250.923L53.5463 242.862C50.7046 241.069 48.4311 238.505 46.9911 235.47C45.5511 232.434 45.0039 229.051 45.4133 225.716C45.8227 222.381 47.1718 219.231 49.3034 216.634C51.4349 214.036 54.261 212.099 57.4521 211.046C56.1093 208.689 55.3261 206.054 55.1626 203.346C54.9991 200.638 55.4599 197.928 56.5093 195.426C57.5587 192.924 59.1687 190.697 61.2152 188.916C63.2617 187.134 65.69 185.847 68.3128 185.153C70.9355 184.458 73.6828 184.376 76.3425 184.911C79.0023 185.447 81.5036 186.586 83.6534 188.241C85.8033 189.896 87.5443 192.022 88.7422 194.457C89.9401 196.891 90.5629 199.568 90.5625 202.281ZM76.7812 227.875C76.7802 226.387 76.5392 224.909 76.0676 223.498L74.2361 225.33C73.9608 225.605 73.61 225.793 73.228 225.869C72.8461 225.945 72.4502 225.906 72.0904 225.757C71.7306 225.608 71.4231 225.355 71.2067 225.031C70.9904 224.708 70.8749 224.327 70.875 223.938V219.891C66.6865 219.421 62.8037 217.47 59.926 214.391C59.8067 214.449 59.6818 214.495 59.5532 214.528C56.9327 215.205 54.5697 216.639 52.7587 218.651C50.9478 220.663 49.7692 223.163 49.3698 225.84C48.9704 228.517 49.3679 231.252 50.5128 233.705C51.6577 236.157 53.4993 238.219 55.8079 239.632C55.9398 239.712 56.0616 239.809 56.1709 239.918L61.0312 244.778V243.625C61.0312 243.103 61.2387 242.602 61.6079 242.233C61.9771 241.864 62.4779 241.656 63 241.656C66.6538 241.652 70.1567 240.199 72.7403 237.615C75.3239 235.032 76.7771 231.529 76.7812 227.875ZM86.625 202.281C86.625 199.556 85.8167 196.891 84.3024 194.625C82.7881 192.358 80.6358 190.592 78.1176 189.549C75.5994 188.506 72.8285 188.233 70.1552 188.765C67.4819 189.297 65.0263 190.609 63.0989 192.536C61.1716 194.464 59.8591 196.919 59.3273 199.593C58.7955 202.266 59.0685 205.037 60.1115 207.555C61.1546 210.073 62.921 212.226 65.1873 213.74C67.4536 215.254 70.1181 216.062 72.8438 216.062C73.3659 216.062 73.8667 216.27 74.2359 216.639C74.6051 217.008 74.8125 217.509 74.8125 218.031V219.185L79.6729 214.324C79.7821 214.215 79.904 214.119 80.0358 214.038C82.0541 212.812 83.7214 211.086 84.8759 209.026C86.0303 206.966 86.6329 204.643 86.625 202.281ZM27.5625 268.234V171.766C27.5657 168.895 28.7075 166.142 30.7375 164.113C32.7675 162.083 35.5198 160.941 38.3906 160.938H87.6094C90.4802 160.941 93.2325 162.083 95.2625 164.113C97.2925 166.142 98.4343 168.895 98.4375 171.766V268.234C98.4343 271.105 97.2925 273.858 95.2625 275.887C93.2325 277.917 90.4802 279.059 87.6094 279.062H38.3906C35.5198 279.059 32.7675 277.917 30.7375 275.887C28.7075 273.858 27.5657 271.105 27.5625 268.234ZM68.9062 269.219C68.9062 268.051 68.5599 266.909 67.9109 265.937C67.2619 264.966 66.3394 264.209 65.2602 263.762C64.181 263.315 62.9934 263.198 61.8477 263.426C60.702 263.654 59.6497 264.216 58.8237 265.042C57.9976 265.868 57.4351 266.921 57.2072 268.066C56.9793 269.212 57.0963 270.4 57.5433 271.479C57.9904 272.558 58.7474 273.481 59.7187 274.13C60.6899 274.779 61.8319 275.125 63 275.125C64.5659 275.123 66.0671 274.5 67.1743 273.393C68.2816 272.286 68.9044 270.785 68.9062 269.219ZM94.5 263.312H70.8696C72.1509 265.015 72.8438 267.088 72.8438 269.219C72.8438 271.35 72.1509 273.423 70.8696 275.125H87.6094C89.4362 275.123 91.1877 274.396 92.4795 273.104C93.7713 271.813 94.4979 270.061 94.5 268.234V263.312ZM31.5 172.75H94.5V171.766C94.4979 169.939 93.7713 168.187 92.4795 166.896C91.1877 165.604 89.4362 164.877 87.6094 164.875H38.3906C36.5638 164.877 34.8123 165.604 33.5205 166.896C32.2287 168.187 31.5021 169.939 31.5 171.766V172.75ZM31.5 259.375H94.5V176.688H31.5V259.375ZM31.5 268.234C31.5021 270.061 32.2287 271.813 33.5205 273.104C34.8123 274.396 36.5638 275.123 38.3906 275.125H55.1304C53.8491 273.423 53.1562 271.35 53.1562 269.219C53.1562 267.088 53.8491 265.015 55.1304 263.312H31.5V268.234ZM73.1309 192.438H72.5566C71.0668 192.439 69.6386 193.032 68.5852 194.085C67.5317 195.139 66.9392 196.567 66.9375 198.057V198.344C66.9375 198.866 67.1449 199.367 67.5141 199.736C67.8833 200.105 68.3841 200.312 68.9062 200.312C69.4284 200.312 69.9292 200.105 70.2984 199.736C70.6676 199.367 70.875 198.866 70.875 198.344V198.057C70.8755 197.611 71.0528 197.183 71.368 196.868C71.6833 196.553 72.1107 196.375 72.5566 196.375H73.1309C73.5097 196.375 73.8773 196.503 74.1743 196.738C74.4713 196.973 74.6802 197.302 74.7673 197.67C74.8543 198.039 74.8143 198.426 74.6538 198.769C74.4933 199.112 74.2217 199.391 73.883 199.56L73.7728 199.616C72.9211 200.038 72.2012 200.685 71.6908 201.487C71.1804 202.288 70.8989 203.215 70.877 204.165C70.877 204.193 70.875 204.221 70.875 204.25V204.304C70.875 204.827 71.0824 205.327 71.4516 205.697C71.8208 206.066 72.3216 206.273 72.8438 206.273C73.3659 206.273 73.8667 206.066 74.2359 205.697C74.6051 205.327 74.8125 204.827 74.8125 204.304C74.8117 204.062 74.8789 203.824 75.0064 203.618C75.1339 203.411 75.3167 203.245 75.534 203.137L75.6441 203.082C76.7762 202.516 77.684 201.584 78.2204 200.438C78.7568 199.291 78.8905 197.997 78.5996 196.765C78.3088 195.534 77.6105 194.436 76.618 193.65C75.6254 192.865 74.3967 192.438 73.1309 192.438ZM72.8438 208.188C72.4544 208.188 72.0737 208.303 71.75 208.519C71.4262 208.736 71.1739 209.043 71.0249 209.403C70.8759 209.763 70.8369 210.158 70.9128 210.54C70.9888 210.922 71.1763 211.273 71.4516 211.548C71.727 211.824 72.0778 212.011 72.4597 212.087C72.8416 212.163 73.2374 212.124 73.5972 211.975C73.9569 211.826 74.2644 211.574 74.4807 211.25C74.697 210.926 74.8125 210.546 74.8125 210.156C74.8125 209.634 74.6051 209.133 74.2359 208.764C73.8667 208.395 73.3659 208.188 72.8438 208.188Z" fill="url(#paint0_linear_1031_3911)"/>
<path d="M155.857 55.9353C155.444 55.9353 155.048 56.0995 154.755 56.3918C154.463 56.6841 154.299 57.0805 154.299 57.4939V59.8318C154.299 60.2452 154.463 60.6416 154.755 60.9339C155.048 61.2262 155.444 61.3904 155.857 61.3904C156.271 61.3904 156.667 61.2262 156.96 60.9339C157.252 60.6416 157.416 60.2452 157.416 59.8318V57.4939C157.416 57.0805 157.252 56.6841 156.96 56.3918C156.667 56.0995 156.271 55.9353 155.857 55.9353Z" fill="url(#paint1_linear_1031_3911)"/>
<path d="M199.29 79.1531C200.511 79.8687 201.901 80.2458 203.317 80.2458C204.732 80.2458 206.122 79.8687 207.343 79.1531L223.1 70.0613C224.322 69.3538 225.336 68.3376 226.041 67.1146C226.746 65.8916 227.117 64.5048 227.117 63.0931C227.117 61.6815 226.746 60.2947 226.041 59.0717C225.336 57.8486 224.322 56.8324 223.1 56.1249L207.343 47.0331C206.12 46.3286 204.732 45.9581 203.32 45.9587C201.909 45.9594 200.522 46.3313 199.299 47.037C198.076 47.7427 197.061 48.7575 196.354 49.9796C195.647 51.2017 195.274 52.5882 195.272 54V72.1836C195.263 73.5975 195.63 74.9882 196.336 76.2131C197.042 77.4379 198.062 78.4527 199.29 79.1531ZM198.384 53.987C198.38 53.1202 198.606 52.2678 199.037 51.5162C199.469 50.7646 200.092 50.1406 200.843 49.7073C201.594 49.274 202.446 49.0469 203.313 49.049C204.18 49.051 205.03 49.2822 205.779 49.7191L221.537 58.8109C222.284 59.2447 222.905 59.8675 223.337 60.6167C223.768 61.366 223.996 62.2155 223.996 63.0801C223.996 63.9448 223.768 64.7943 223.337 65.5435C222.905 66.2928 222.284 66.9155 221.537 67.3494L205.779 76.4412C205.029 76.8723 204.179 77.0988 203.315 77.0979C202.45 77.0971 201.6 76.869 200.851 76.4365C200.102 76.004 199.48 75.3823 199.047 74.6336C198.614 73.8849 198.385 73.0355 198.384 72.1706V53.987Z" fill="url(#paint2_linear_1031_3911)"/>
<path d="M257.867 108.133H184.567V105.015C184.567 103.5 183.965 102.046 182.893 100.974C181.821 99.9026 180.368 99.3005 178.852 99.3005C177.336 99.3005 175.883 99.9026 174.811 100.974C173.739 102.046 173.137 103.5 173.137 105.015V108.133H162.44C162.027 108.133 161.63 108.297 161.338 108.589C161.046 108.881 160.881 109.278 160.881 109.691C160.881 110.105 161.046 110.501 161.338 110.793C161.63 111.086 162.027 111.25 162.44 111.25H173.129V114.367C173.129 115.883 173.731 117.336 174.803 118.408C175.875 119.48 177.328 120.082 178.844 120.082C180.36 120.082 181.813 119.48 182.885 118.408C183.957 117.336 184.559 115.883 184.559 114.367V111.25H257.867C258.281 111.25 258.677 111.086 258.97 110.793C259.262 110.501 259.426 110.105 259.426 109.691C259.426 109.278 259.262 108.881 258.97 108.589C258.677 108.297 258.281 108.133 257.867 108.133ZM181.45 114.367C181.45 115.056 181.176 115.717 180.689 116.204C180.202 116.691 179.541 116.965 178.852 116.965C178.163 116.965 177.502 116.691 177.015 116.204C176.528 115.717 176.254 115.056 176.254 114.367V105.008C176.254 104.319 176.528 103.658 177.015 103.171C177.502 102.684 178.163 102.41 178.852 102.41C179.541 102.41 180.202 102.684 180.689 103.171C181.176 103.658 181.45 104.319 181.45 105.008V114.367Z" fill="url(#paint3_linear_1031_3911)"/>
<path d="M264.439 12.9077C260.432 12.9077 256.515 14.096 253.183 16.3224C249.851 18.5488 247.254 21.7133 245.72 25.4156C244.187 29.118 243.785 33.1919 244.567 37.1223C245.349 41.0527 247.279 44.663 250.112 47.4966C252.946 50.3303 256.556 52.26 260.487 53.0418C264.417 53.8236 268.491 53.4224 272.193 51.8888C275.896 50.3553 279.06 47.7583 281.286 44.4262C283.513 41.0942 284.701 37.1768 284.701 33.1694C284.701 27.7957 282.566 22.642 278.767 18.8422C274.967 15.0424 269.813 12.9077 264.439 12.9077ZM264.439 50.2906C261.049 50.2906 257.734 49.2851 254.914 47.4012C252.095 45.5173 249.898 42.8397 248.6 39.707C247.302 36.5742 246.963 33.127 247.624 29.8013C248.286 26.4756 249.919 23.4207 252.316 21.023C254.714 18.6253 257.769 16.9925 261.095 16.331C264.42 15.6694 267.868 16.0089 271 17.3066C274.133 18.6042 276.811 20.8017 278.695 23.6211C280.578 26.4405 281.584 29.7552 281.584 33.1461C281.584 37.6931 279.778 42.0538 276.562 45.2691C273.347 48.4843 268.986 50.2906 264.439 50.2906Z" fill="url(#paint4_linear_1031_3911)"/>
<path d="M274.139 35.2813L265.998 31.2186V22.2125C265.998 21.7992 265.834 21.4027 265.542 21.1104C265.249 20.8181 264.853 20.6539 264.439 20.6539C264.026 20.6539 263.63 20.8181 263.337 21.1104C263.045 21.4027 262.881 21.7992 262.881 22.2125V31.9823C262.881 32.3285 262.996 32.6648 263.208 32.9382L263.468 33.2656C263.611 33.4485 263.793 33.5975 264 33.702L272.752 38.0686C272.967 38.1769 273.205 38.2338 273.446 38.2349C273.797 38.2357 274.139 38.1176 274.415 37.8998C274.691 37.682 274.885 37.3773 274.966 37.0351C275.047 36.693 275.01 36.3335 274.86 36.0151C274.711 35.6968 274.459 35.4382 274.144 35.2813H274.139Z" fill="url(#paint5_linear_1031_3911)"/>
<path d="M264.439 50.2906C261.831 50.2888 259.258 49.6918 256.915 48.5453C254.572 47.3987 252.522 45.7327 250.92 43.6741C249.318 41.6155 248.208 39.2185 247.672 36.6658C247.137 34.113 247.191 31.4718 247.83 28.943C247.889 28.7129 247.894 28.4723 247.845 28.2398C247.797 28.0073 247.696 27.789 247.55 27.6015C247.404 27.414 247.217 27.2624 247.004 27.1581C246.79 27.0539 246.556 26.9998 246.318 27H164.809C162.023 27.0034 159.351 28.1119 157.381 30.0821C155.411 32.0524 154.302 34.7237 154.299 37.5101V52.5765C154.299 52.9899 154.463 53.3863 154.755 53.6786C155.048 53.9709 155.444 54.1351 155.857 54.1351C156.271 54.1351 156.667 53.9709 156.96 53.6786C157.252 53.3863 157.416 52.9899 157.416 52.5765V37.5101C157.418 35.55 158.198 33.6708 159.584 32.2848C160.97 30.8988 162.849 30.1193 164.809 30.1172H244.438C244.021 32.8688 244.176 35.6767 244.893 38.3659C245.609 41.055 246.872 43.5677 248.602 45.7473C250.333 47.9268 252.494 49.7266 254.95 51.0343C257.407 52.342 260.106 53.1296 262.881 53.348V88.6762C262.879 90.6362 262.099 92.5155 260.713 93.9015C259.327 95.2875 257.448 96.067 255.488 96.0691H164.809C162.847 96.0663 160.966 95.2848 159.58 93.8961C158.194 92.5075 157.415 90.6253 157.416 88.6632V64.7413C157.416 64.328 157.252 63.9315 156.96 63.6393C156.667 63.347 156.271 63.1828 155.857 63.1828C155.444 63.1828 155.048 63.347 154.755 63.6393C154.463 63.9315 154.299 64.328 154.299 64.7413V88.6632C154.302 91.4496 155.411 94.1209 157.381 96.0911C159.351 98.0614 162.023 99.1698 164.809 99.1733H255.498C258.283 99.1671 260.952 98.0575 262.92 96.0875C264.888 94.1175 265.995 91.4478 265.998 88.6632V51.8492C265.998 51.4358 265.834 51.0394 265.542 50.7471C265.249 50.4548 264.853 50.2906 264.439 50.2906Z" fill="url(#paint6_linear_1031_3911)"/>
<path d="M272.625 256.812H265.375C260.378 256.812 256.312 260.878 256.312 265.875V313.651C255.368 313.595 254.444 313.299 253.661 312.739L252.142 311.655L245.361 318.438H236.375C234.015 318.438 232.021 316.917 231.271 314.812H233.941C237.274 314.812 240.167 312.554 240.973 309.321L242.322 303.938H235.184C233.609 303.938 232.143 304.454 230.939 305.328V296.688H238.189V293.062H220.062V296.688H227.312V301.703C226.109 300.829 224.641 300.312 223.068 300.312H215.928L217.275 305.696C218.081 308.929 220.974 311.188 224.307 311.188H227.312V313C227.312 317.997 231.378 322.062 236.375 322.062H242.67L243.333 322.991C244.379 324.453 244.591 326.318 243.904 327.979C243.697 328.477 243.402 328.914 243.069 329.312H230.938V332.938H238.188V343.812H234.562V347.438H243.069C243.402 347.836 243.697 348.273 243.904 348.771C244.591 350.434 244.379 352.297 243.333 353.759L242.282 355.231L245.363 358.312H227.312V361.938H248.986L252.142 365.093L253.614 364.042C255.078 362.996 256.94 362.784 258.602 363.471C260.264 364.158 261.433 365.628 261.728 367.404L262.027 369.188H275.971L276.27 367.404C276.565 365.63 277.734 364.16 279.396 363.473C281.057 362.786 282.922 362.998 284.384 364.044L285.856 365.095L289.014 361.938H310.688V358.312H292.639L295.72 355.231L294.669 353.759C293.623 352.297 293.411 350.432 294.098 348.771C294.304 348.273 294.6 347.838 294.933 347.438H303.438V343.812H299.812V332.938H307.062V329.312H294.928C294.598 328.916 294.306 328.484 294.101 327.991C293.411 326.322 293.625 324.448 294.676 322.978L295.328 322.062H301.625C306.622 322.062 310.688 317.997 310.688 313V311.188H313.693C317.026 311.188 319.919 308.929 320.725 305.696L322.072 300.312H314.934C313.359 300.312 311.893 300.829 310.689 301.703V296.688H317.939V293.062H299.812V296.688H307.062V305.328C305.859 304.454 304.391 303.938 302.818 303.938H295.68L297.027 309.321C297.833 312.554 300.726 314.812 304.059 314.812H306.729C305.979 316.917 303.985 318.438 301.625 318.438H292.639L285.858 311.657L284.339 312.743C283.558 313.301 282.635 313.596 281.689 313.653V265.875C281.688 260.878 277.622 256.812 272.625 256.812ZM224.307 307.562C222.642 307.562 221.195 306.433 220.791 304.817L220.572 303.938H223.068C224.733 303.938 226.18 305.067 226.584 306.683L226.803 307.562H224.307ZM231.666 310.308C232.07 308.692 233.517 307.562 235.182 307.562H237.678L237.457 308.442C237.055 310.058 235.608 311.188 233.943 311.188H231.447L231.666 310.308ZM311.416 306.683C311.82 305.067 313.267 303.938 314.932 303.938H317.428L317.207 304.817C316.805 306.433 315.358 307.562 313.693 307.562H311.197L311.416 306.683ZM304.057 311.188C302.392 311.188 300.945 310.058 300.541 308.442L300.322 307.562H302.818C304.483 307.562 305.93 308.692 306.334 310.308L306.553 311.188H304.057ZM273.317 340.188H264.683L261.058 332.938H276.942L273.317 340.188ZM271.505 343.812L270.002 346.819C269.62 347.583 268.38 347.583 268 346.819L266.495 343.812H271.505ZM278.062 282.188V329.312H270.812V282.188H278.062ZM278.062 278.562H259.938V274.938H278.062V278.562ZM267.188 282.188V329.312H259.938V282.188H267.188ZM264.755 348.438C265.564 350.057 267.189 351.062 269 351.062C270.811 351.062 272.436 350.057 273.245 348.44L281.688 331.553V328.127C284.017 330.994 285.312 334.569 285.312 338.375C285.312 347.369 277.994 354.688 269 354.688C260.006 354.688 252.688 347.369 252.688 338.375C252.688 334.567 253.983 330.993 256.312 328.125V331.551L264.755 348.438ZM265.375 260.438H272.625C275.623 260.438 278.062 262.877 278.062 265.875V271.312H259.938V265.875C259.938 262.877 262.377 260.438 265.375 260.438ZM285.403 316.33L291.051 321.977C289.871 324.265 289.746 326.949 290.752 329.378C291.754 331.801 293.737 333.606 296.188 334.382V342.37C293.735 343.151 291.751 344.958 290.748 347.385C289.744 349.808 289.869 352.491 291.051 354.774L285.401 360.424C283.116 359.242 280.435 359.117 278.012 360.121C275.585 361.126 273.776 363.11 272.997 365.561H265.007C264.226 363.108 262.419 361.124 259.992 360.121C257.569 359.117 254.888 359.242 252.602 360.424L246.953 354.774C248.133 352.491 248.26 349.808 247.255 347.385C246.251 344.958 244.267 343.149 241.816 342.37V334.38C244.268 333.599 246.253 331.792 247.255 329.365C248.26 326.942 248.135 324.259 246.953 321.976L252.599 316.33C253.75 316.93 255.024 317.227 256.314 317.272V323.038C251.711 326.84 249.064 332.365 249.064 338.377C249.064 349.37 258.009 358.314 269.002 358.314C279.995 358.314 288.939 349.37 288.939 338.377C288.939 332.365 286.293 326.84 281.689 323.038V317.272C282.978 317.225 284.252 316.928 285.403 316.33ZM230.809 256.812H227.441C219.376 256.812 212.812 263.376 212.812 271.441C212.812 275.349 214.335 279.023 217.097 281.785L218.469 283.157C219.482 284.17 220.062 285.571 220.062 287.003V289.438H238.188V287.003C238.188 285.571 238.767 284.17 239.779 283.159L241.151 281.787C243.915 279.023 245.438 275.349 245.438 271.441C245.438 263.376 238.874 256.812 230.809 256.812ZM227.312 273.125C227.312 272.126 228.126 271.312 229.125 271.312C230.124 271.312 230.938 272.126 230.938 273.125C230.938 274.124 230.124 274.938 229.125 274.938C228.126 274.938 227.312 274.124 227.312 273.125ZM238.59 279.222L237.218 280.594C235.79 282.023 234.898 283.842 234.64 285.811H230.938V278.227C233.042 277.477 234.562 275.483 234.562 273.123C234.562 270.125 232.123 267.686 229.125 267.686C226.127 267.686 223.688 270.125 223.688 273.123C223.688 275.483 225.208 277.477 227.312 278.227V285.812H223.611C223.354 283.844 222.462 282.023 221.034 280.596L219.662 279.224C217.581 277.143 216.438 274.381 216.438 271.441C216.438 265.375 221.375 260.438 227.441 260.438H230.807C236.875 260.438 241.812 265.375 241.812 271.441C241.812 274.381 240.669 277.143 238.59 279.222ZM227.312 331.125C227.312 328.127 224.873 325.688 221.875 325.688C218.877 325.688 216.438 328.127 216.438 331.125C216.438 334.123 218.877 336.562 221.875 336.562C224.873 336.562 227.312 334.123 227.312 331.125ZM220.062 331.125C220.062 330.126 220.876 329.312 221.875 329.312C222.874 329.312 223.688 330.126 223.688 331.125C223.688 332.124 222.874 332.938 221.875 332.938C220.876 332.938 220.062 332.124 220.062 331.125ZM218.25 365.562C221.248 365.562 223.688 363.123 223.688 360.125C223.688 357.127 221.248 354.688 218.25 354.688C215.252 354.688 212.812 357.127 212.812 360.125C212.812 363.123 215.252 365.562 218.25 365.562ZM218.25 358.312C219.249 358.312 220.062 359.126 220.062 360.125C220.062 361.124 219.249 361.938 218.25 361.938C217.251 361.938 216.438 361.124 216.438 360.125C216.438 359.126 217.251 358.312 218.25 358.312ZM225.5 351.062C228.498 351.062 230.938 348.623 230.938 345.625C230.938 342.627 228.498 340.188 225.5 340.188C222.502 340.188 220.062 342.627 220.062 345.625C220.062 348.623 222.502 351.062 225.5 351.062ZM225.5 343.812C226.499 343.812 227.312 344.626 227.312 345.625C227.312 346.624 226.499 347.438 225.5 347.438C224.501 347.438 223.688 346.624 223.688 345.625C223.688 344.626 224.501 343.812 225.5 343.812ZM310.559 256.812H307.193C299.126 256.812 292.562 263.376 292.562 271.441C292.562 275.349 294.085 279.023 296.847 281.785L298.219 283.157C299.232 284.17 299.812 285.571 299.812 287.003V289.438H317.938V287.003C317.938 285.571 318.517 284.17 319.529 283.159L320.901 281.787C323.665 279.023 325.188 275.349 325.188 271.441C325.188 263.376 318.624 256.812 310.559 256.812ZM307.062 273.125C307.062 272.126 307.876 271.312 308.875 271.312C309.874 271.312 310.688 272.126 310.688 273.125C310.688 274.124 309.874 274.938 308.875 274.938C307.876 274.938 307.062 274.124 307.062 273.125ZM318.34 279.222L316.968 280.594C315.54 282.023 314.648 283.842 314.39 285.811H310.688V278.227C312.792 277.477 314.312 275.483 314.312 273.123C314.312 270.125 311.873 267.686 308.875 267.686C305.877 267.686 303.438 270.125 303.438 273.123C303.438 275.483 304.958 277.477 307.062 278.227V285.812H303.361C303.104 283.844 302.212 282.023 300.784 280.596L299.412 279.224C297.331 277.143 296.188 274.381 296.188 271.441C296.188 265.375 301.125 260.438 307.191 260.438H310.557C316.625 260.438 321.562 265.375 321.562 271.441C321.562 274.381 320.419 277.143 318.34 279.222ZM321.562 331.125C321.562 328.127 319.123 325.688 316.125 325.688C313.127 325.688 310.688 328.127 310.688 331.125C310.688 334.123 313.127 336.562 316.125 336.562C319.123 336.562 321.562 334.123 321.562 331.125ZM316.125 332.938C315.126 332.938 314.312 332.124 314.312 331.125C314.312 330.126 315.126 329.312 316.125 329.312C317.124 329.312 317.938 330.126 317.938 331.125C317.938 332.124 317.124 332.938 316.125 332.938ZM319.75 354.688C316.752 354.688 314.312 357.127 314.312 360.125C314.312 363.123 316.752 365.562 319.75 365.562C322.748 365.562 325.188 363.123 325.188 360.125C325.188 357.127 322.748 354.688 319.75 354.688ZM319.75 361.938C318.751 361.938 317.938 361.124 317.938 360.125C317.938 359.126 318.751 358.312 319.75 358.312C320.749 358.312 321.562 359.126 321.562 360.125C321.562 361.124 320.749 361.938 319.75 361.938ZM307.062 345.625C307.062 348.623 309.502 351.062 312.5 351.062C315.498 351.062 317.938 348.623 317.938 345.625C317.938 342.627 315.498 340.188 312.5 340.188C309.502 340.188 307.062 342.627 307.062 345.625ZM314.312 345.625C314.312 346.624 313.499 347.438 312.5 347.438C311.501 347.438 310.688 346.624 310.688 345.625C310.688 344.626 311.501 343.812 312.5 343.812C313.499 343.812 314.312 344.626 314.312 345.625Z" fill="url(#paint7_linear_1031_3911)"/>
</g>
<defs>
<linearGradient id="paint0_linear_1031_3911" x1="18.9251" y1="264.075" x2="107.075" y2="175.925" gradientUnits="userSpaceOnUse">
<stop stop-color="#0058C2"/>
<stop offset="1" stop-color="#13203B"/>
</linearGradient>
<linearGradient id="paint1_linear_1031_3911" x1="132.884" y1="28.1014" x2="232.416" y2="160.499" gradientUnits="userSpaceOnUse">
<stop stop-color="#006BEC"/>
<stop offset="1" stop-color="#122241"/>
</linearGradient>
<linearGradient id="paint2_linear_1031_3911" x1="163.928" y1="4.76145" x2="263.46" y2="137.161" gradientUnits="userSpaceOnUse">
<stop stop-color="#0056BD"/>
<stop offset="1" stop-color="#13203B"/>
</linearGradient>
<linearGradient id="paint3_linear_1031_3911" x1="143.064" y1="20.4461" x2="242.596" y2="152.846" gradientUnits="userSpaceOnUse">
<stop stop-color="#0057BF"/>
<stop offset="1" stop-color="#13203B"/>
</linearGradient>
<linearGradient id="paint4_linear_1031_3911" x1="214.515" y1="-33.2682" x2="314.047" y2="99.1317" gradientUnits="userSpaceOnUse">
<stop stop-color="#006CEF"/>
<stop offset="1" stop-color="#13203B"/>
</linearGradient>
<linearGradient id="paint5_linear_1031_3911" x1="217.424" y1="-35.4554" x2="316.959" y2="96.9445" gradientUnits="userSpaceOnUse">
<stop stop-color="#006EF3"/>
<stop offset="1" stop-color="#13203B"/>
</linearGradient>
<linearGradient id="paint6_linear_1031_3911" x1="161.289" y1="6.74608" x2="260.821" y2="139.143" gradientUnits="userSpaceOnUse">
<stop stop-color="#0046D8"/>
<stop offset="1" stop-color="#13203B"/>
</linearGradient>
<linearGradient id="paint7_linear_1031_3911" x1="269" y1="369.188" x2="269" y2="256.812" gradientUnits="userSpaceOnUse">
<stop stop-color="#13203B"/>
<stop offset="1" stop-color="#0050B1"/>
</linearGradient>
</defs>
</svg>
