<svg id="Layer_1" enable-background="new 0 0 512 512" viewBox="0 0 512 512" xmlns="http://www.w3.org/2000/svg"><path d="m289.7 117.8-24.4-3.5-10.9-22.1c-1.8-3.8-8-3.8-9.9 0l-10.9 22.1-24.4 3.5c-2.1.3-3.8 1.8-4.4 3.7-.6 2-.1 4.2 1.4 5.6l17.6 17.2-4.2 24.3c-.4 2.1.5 4.2 2.2 5.4s3.9 1.4 5.8.4l21.8-11.5 21.8 11.5c1.8 1 4.1.8 5.8-.4s2.5-3.3 2.2-5.4l-4.2-24.3 17.6-17.2c1.5-1.5 2-3.6 1.4-5.6-.5-1.9-2.2-3.4-4.3-3.7zm-24.3 20.7c-1.3 1.3-1.9 3.1-1.6 4.9l2.8 16.1c-1.8-.7-15.3-8.7-17.1-8.3-1.7-.5-15.3 7.6-17.1 8.3l2.8-16.1c.3-1.8-.3-3.6-1.6-4.9l-11.7-11.4 16.2-2.4c1.8-.3 3.3-1.4 4.1-3l7.2-14.7 7.3 14.7c.8 1.6 2.3 2.7 4.1 3l16.2 2.4zm213.7-78.4c-4.1-4-9.5-6.2-15.2-6.2h-61.7l3-13.9c28.7 3.2 33.2-36.9 4.5-39h-317.6c-28.6 2-24.3 42.2 4.5 39l3 13.9h-61.5c-11.5-.3-21.8 9.9-21.5 21.5 0 88.2 65.5 162.6 152.7 173.9 12.6 13.7 27.2 25.6 43.2 35.2-23.5 11.8-12.6 46.5 13.4 43.9v46.6h-23c-7.9 0-14.3 6.4-14.3 14.3v12.3h-33.6c-16.6 0-30.1 13.5-30.1 30.1v73.9c0 3 2.5 5.5 5.5 5.5h241.2c3 0 5.5-2.5 5.5-5.5v-73.9c0-16.6-13.5-30.1-30.1-30.1h-33.5v-12.3c0-7.9-6.4-14.3-14.3-14.3h-23v-46.6c26.2 2.7 36.8-32.1 13.4-43.9 15.8-9.4 30.5-21.4 42.9-35.1 87.3-11.2 152.9-85.6 152.9-174 .1-5.8-2.2-11.2-6.3-15.3zm-386.9-31.1c-4.7 0-8.5-3.8-8.5-8.5s3.8-8.5 8.5-8.5h317.6c4.7 0 8.5 3.8 8.5 8.5s-3.8 8.5-8.5 8.5h-8.8c-.1 0-299.8 0-299.9 0zm-64.6 46.3c-.1-5.7 4.9-10.6 10.5-10.5h63.9l20.1 93.3c6.1 28.4 18.6 55.2 36.2 78.1-75.4-15.6-130.7-82.4-130.7-160.9zm319.4 337.2c10.5 0 19.1 8.6 19.1 19.1v68.4h-230.2v-68.4c0-10.5 8.6-19.1 19.1-19.1zm-47.8-26.6c1.8 0 3.3 1.5 3.3 3.3v12.3h-103.1v-12.3c0-1.8 1.5-3.3 3.3-3.3zm-62.4-11v-46.6h28.4v46.6zm51.3-61.2c-2.3 2.3-5.3 3.6-8.6 3.6h-57c-10.5.3-16.3-13.6-8.5-20.7 2.2-2.3 5.3-3.5 8.5-3.5h57c10.5-.4 16.2 13.5 8.6 20.6zm-16.9-31.7h-40.5c-13.7-6.8-26.5-15.3-38.1-25.4-30.2-26-51.4-61.7-59.8-100.7l-24.8-115.9h286l-24.9 116c-11.3 54.4-48.2 101.4-97.9 126zm72.3-45.7c17.7-22.8 30.1-49.2 36.3-78.1l20-93.4h64c5.6-.1 10.6 4.8 10.5 10.5.2 78.6-55.2 145.4-130.8 161zm-166.7 241h148.4c6.6 0 11.9-5.4 11.9-11.9v-18.3c0-6.6-5.4-11.9-11.9-11.9h-148.4c-6.6 0-11.9 5.3-11.9 11.9v18.3c0 6.5 5.3 11.9 11.9 11.9zm-.9-30.2c0-.5.4-.9.9-.9h148.4c.5 0 .9.4.9.9v18.3c0 .5-.4.9-.9.9h-148.4c-.5 0-.9-.4-.9-.9zm-110.8-169.4c-9.4 0-17-7.6-17-17 0-3-2.5-5.5-5.5-5.5s-5.5 2.5-5.5 5.5c0 9.4-7.6 17-17 17-3 0-5.5 2.5-5.5 5.5s2.5 5.5 5.5 5.5c9.4 0 17 7.6 17 17 0 3 2.5 5.5 5.5 5.5s5.5-2.5 5.5-5.5c0-9.4 7.6-17 17-17 7.2 0 7.2-10.9 0-11zm-22.5 11.4c-1.7-2.2-3.6-4.2-5.9-5.9 2.2-1.7 4.2-3.6 5.9-5.9 1.7 2.2 3.6 4.2 5.9 5.9-2.3 1.7-4.2 3.7-5.9 5.9zm87 67.2c0-5.9 4.8-10.8 10.8-10.8 3 0 5.5-2.5 5.5-5.5s-2.5-5.5-5.5-5.5c-5.9 0-10.8-4.8-10.8-10.8 0-3-2.5-5.5-5.5-5.5s-5.5 2.5-5.5 5.5c0 5.9-4.8 10.8-10.8 10.8-3 0-5.5 2.5-5.5 5.5s2.5 5.5 5.5 5.5c5.9 0 10.8 4.8 10.8 10.8 0 7.2 11 7.2 11 0zm-5.5-14.5c-.6-.6-1.2-1.3-1.8-1.8.6-.6 1.3-1.2 1.8-1.8.6.6 1.2 1.3 1.8 1.8-.6.6-1.2 1.2-1.8 1.8zm-71.4 73.8c-4.2 0-7.7 3.4-7.7 7.7 0 3-2.5 5.5-5.5 5.5s-5.5-2.5-5.5-5.5c0-4.2-3.4-7.7-7.7-7.7-3 0-5.5-2.5-5.5-5.5s2.5-5.5 5.5-5.5c4.2 0 7.7-3.4 7.7-7.7 0-7.2 11-7.2 11 0 0 4.2 3.4 7.7 7.7 7.7 7.2 0 7.2 10.9 0 11zm439.2-174.1c-9.4 0-17-7.6-17-17 0-3-2.5-5.5-5.5-5.5s-5.5 2.5-5.5 5.5c0 9.4-7.6 17-17 17-7.2 0-7.2 11 0 11 9.4 0 17 7.6 17 17 0 3 2.5 5.5 5.5 5.5s5.5-2.5 5.5-5.5c0-9.4 7.6-17 17-17 3 0 5.5-2.5 5.5-5.5s-2.4-5.5-5.5-5.5zm-22.5 11.4c-1.7-2.2-3.6-4.2-5.9-5.9 2.2-1.7 4.2-3.6 5.9-5.9 1.7 2.2 3.6 4.2 5.9 5.9-2.3 1.7-4.2 3.7-5.9 5.9zm-65.2 45.4c-5.9 0-10.8-4.8-10.8-10.8 0-7.2-11-7.2-11 0 0 5.9-4.8 10.8-10.8 10.8-3 0-5.5 2.5-5.5 5.5s2.5 5.5 5.5 5.5c5.9 0 10.8 4.8 10.8 10.8 0 3 2.5 5.5 5.5 5.5s5.5-2.5 5.5-5.5c0-5.9 4.8-10.8 10.8-10.8 3 0 5.5-2.5 5.5-5.5s-2.5-5.5-5.5-5.5zm-16.3 7.3c-.6-.6-1.2-1.3-1.8-1.8.6-.6 1.3-1.2 1.8-1.8.6.6 1.2 1.3 1.8 1.8-.6.6-1.2 1.2-1.8 1.8zm97.8 73.8c-4.2 0-7.7 3.4-7.7 7.7 0 3-2.5 5.5-5.5 5.5s-5.5-2.5-5.5-5.5c0-4.2-3.4-7.7-7.7-7.7-3 0-5.5-2.5-5.5-5.5s2.5-5.5 5.5-5.5c4.2 0 7.7-3.4 7.7-7.7 0-7.2 11-7.2 11 0 0 4.2 3.4 7.7 7.7 7.7 7.2 0 7.2 10.9 0 11z"/></svg>