<svg width="438" height="438" viewBox="0 0 438 438" fill="none" xmlns="http://www.w3.org/2000/svg">
<path d="M247.832 100.774L226.958 97.7801L217.634 78.8742C216.094 75.6234 210.79 75.6234 209.164 78.8742L199.84 97.7801L178.966 100.774C177.17 101.031 175.716 102.314 175.202 103.939C174.689 105.65 175.117 107.532 176.4 108.73L191.456 123.444L187.863 144.232C187.521 146.029 188.291 147.825 189.745 148.852C191.2 149.878 193.082 150.049 194.707 149.194L213.356 139.356L232.005 149.194C233.545 150.049 235.513 149.878 236.967 148.852C238.421 147.825 239.106 146.029 238.849 144.232L235.256 123.444L250.312 108.73C251.596 107.447 252.023 105.65 251.51 103.939C251.082 102.314 249.628 101.031 247.832 100.774ZM227.044 118.482C225.932 119.595 225.418 121.134 225.675 122.674L228.07 136.447C226.53 135.848 214.982 129.005 213.442 129.347C211.987 128.919 200.353 135.848 198.813 136.447L201.209 122.674C201.465 121.134 200.952 119.595 199.84 118.482L189.831 108.73L203.689 106.677C205.229 106.42 206.512 105.479 207.197 104.111L213.356 91.5352L219.601 104.111C220.286 105.479 221.569 106.42 223.109 106.677L236.967 108.73L227.044 118.482ZM409.857 51.4137C406.35 47.9918 401.73 46.1098 396.854 46.1098H344.072L346.638 34.2188C371.19 36.9563 375.04 2.65195 350.488 0.855469H78.791C54.3246 2.56641 58.0031 36.9563 82.6406 34.2188L85.207 46.1098H32.5957C22.7578 45.8531 13.9465 54.5789 14.2031 64.5023C14.2031 139.955 70.2363 203.602 144.833 213.268C155.612 224.988 168.102 235.168 181.789 243.381C161.686 253.475 171.011 283.16 193.253 280.936V320.801H173.577C166.819 320.801 161.344 326.276 161.344 333.034V343.556H132.6C118.399 343.556 106.85 355.105 106.85 369.306V432.525C106.85 435.091 108.989 437.23 111.555 437.23H317.895C320.461 437.23 322.6 435.091 322.6 432.525V369.306C322.6 355.105 311.051 343.556 296.85 343.556H268.192V333.034C268.192 326.276 262.717 320.801 255.959 320.801H236.283V280.936C258.696 283.246 267.764 253.475 247.746 243.381C261.263 235.339 273.838 225.074 284.446 213.354C359.128 203.773 415.247 140.126 415.247 64.5023C415.332 59.5406 413.365 54.9211 409.857 51.4137ZM78.8766 24.8086C74.8559 24.8086 71.6051 21.5578 71.6051 17.5371C71.6051 13.5164 74.8559 10.2656 78.8766 10.2656H350.573C354.594 10.2656 357.845 13.5164 357.845 17.5371C357.845 21.5578 354.594 24.8086 350.573 24.8086H343.045C342.96 24.8086 86.5758 24.8086 86.4902 24.8086H78.8766ZM23.6133 64.4168C23.5277 59.5406 27.8051 55.3488 32.5957 55.4344H87.2602L104.455 135.25C109.673 159.545 120.367 182.471 135.423 202.062C70.9207 188.716 23.6133 131.571 23.6133 64.4168ZM296.85 352.881C305.832 352.881 313.189 360.238 313.189 369.22V427.734H116.261V369.22C116.261 360.238 123.618 352.881 132.6 352.881H296.85ZM255.959 330.125C257.498 330.125 258.782 331.409 258.782 332.948V343.471H170.583V332.948C170.583 331.409 171.866 330.125 173.406 330.125H255.959ZM202.577 320.715V280.85H226.873V320.715H202.577ZM246.463 268.361C244.495 270.328 241.929 271.44 239.106 271.44H190.344C181.362 271.697 176.4 259.806 183.073 253.732C184.955 251.764 187.607 250.738 190.344 250.738H239.106C248.088 250.396 252.964 262.287 246.463 268.361ZM232.005 241.242H197.359C185.639 235.425 174.689 228.154 164.766 219.513C138.93 197.271 120.795 166.731 113.609 133.368L92.393 34.2188H337.057L315.756 133.453C306.089 179.991 274.522 220.198 232.005 241.242ZM293.856 202.147C308.998 182.643 319.605 160.058 324.909 135.335L342.019 55.4344H396.769C401.559 55.3488 405.837 59.5406 405.751 64.4168C405.922 131.657 358.529 188.802 293.856 202.147ZM151.249 408.315H278.201C283.847 408.315 288.381 403.696 288.381 398.135V382.48C288.381 376.834 283.761 372.3 278.201 372.3H151.249C145.603 372.3 141.069 376.834 141.069 382.48V398.135C141.069 403.696 145.603 408.315 151.249 408.315ZM150.479 382.48C150.479 382.052 150.821 381.71 151.249 381.71H278.201C278.629 381.71 278.971 382.052 278.971 382.48V398.135C278.971 398.563 278.629 398.905 278.201 398.905H151.249C150.821 398.905 150.479 398.563 150.479 398.135V382.48ZM55.6934 237.564C47.652 237.564 41.1504 231.062 41.1504 223.021C41.1504 220.454 39.0117 218.316 36.4453 218.316C33.8789 218.316 31.7402 220.454 31.7402 223.021C31.7402 231.062 25.2387 237.564 17.1973 237.564C14.6309 237.564 12.4922 239.702 12.4922 242.269C12.4922 244.835 14.6309 246.974 17.1973 246.974C25.2387 246.974 31.7402 253.475 31.7402 261.517C31.7402 264.083 33.8789 266.222 36.4453 266.222C39.0117 266.222 41.1504 264.083 41.1504 261.517C41.1504 253.475 47.652 246.974 55.6934 246.974C61.8527 246.974 61.8527 237.649 55.6934 237.564ZM36.4453 247.316C34.991 245.434 33.3656 243.723 31.398 242.269C33.2801 240.814 34.991 239.189 36.4453 237.221C37.8996 239.104 39.525 240.814 41.4926 242.269C39.525 243.723 37.8996 245.434 36.4453 247.316ZM110.871 304.804C110.871 299.756 114.977 295.564 120.11 295.564C122.677 295.564 124.815 293.426 124.815 290.859C124.815 288.293 122.677 286.154 120.11 286.154C115.063 286.154 110.871 282.048 110.871 276.915C110.871 274.349 108.732 272.21 106.166 272.21C103.6 272.21 101.461 274.349 101.461 276.915C101.461 281.963 97.3547 286.154 92.2219 286.154C89.6555 286.154 87.5168 288.293 87.5168 290.859C87.5168 293.426 89.6555 295.564 92.2219 295.564C97.2691 295.564 101.461 299.671 101.461 304.804C101.461 310.963 110.871 310.963 110.871 304.804ZM106.166 292.399C105.653 291.886 105.139 291.287 104.626 290.859C105.139 290.346 105.738 289.833 106.166 289.32C106.679 289.833 107.193 290.432 107.706 290.859C107.193 291.373 106.679 291.886 106.166 292.399ZM45.0855 355.533C41.4926 355.533 38.4984 358.441 38.4984 362.12C38.4984 364.686 36.3598 366.825 33.7934 366.825C31.227 366.825 29.0883 364.686 29.0883 362.12C29.0883 358.527 26.1797 355.533 22.5012 355.533C19.9348 355.533 17.7961 353.394 17.7961 350.828C17.7961 348.261 19.9348 346.123 22.5012 346.123C26.0941 346.123 29.0883 343.214 29.0883 339.536C29.0883 333.376 38.4984 333.376 38.4984 339.536C38.4984 343.129 41.407 346.123 45.0855 346.123C51.2449 346.123 51.2449 355.447 45.0855 355.533ZM420.807 206.596C412.766 206.596 406.264 200.094 406.264 192.053C406.264 189.486 404.126 187.348 401.559 187.348C398.993 187.348 396.854 189.486 396.854 192.053C396.854 200.094 390.353 206.596 382.311 206.596C376.152 206.596 376.152 216.006 382.311 216.006C390.353 216.006 396.854 222.507 396.854 230.549C396.854 233.115 398.993 235.254 401.559 235.254C404.126 235.254 406.264 233.115 406.264 230.549C406.264 222.507 412.766 216.006 420.807 216.006C423.374 216.006 425.512 213.867 425.512 211.301C425.512 208.734 423.459 206.596 420.807 206.596ZM401.559 216.348C400.105 214.466 398.48 212.755 396.512 211.301C398.394 209.846 400.105 208.221 401.559 206.254C403.014 208.136 404.639 209.846 406.607 211.301C404.639 212.755 403.014 214.466 401.559 216.348ZM345.783 255.186C340.736 255.186 336.544 251.08 336.544 245.947C336.544 239.788 327.134 239.788 327.134 245.947C327.134 250.995 323.027 255.186 317.895 255.186C315.328 255.186 313.189 257.325 313.189 259.891C313.189 262.458 315.328 264.596 317.895 264.596C322.942 264.596 327.134 268.703 327.134 273.836C327.134 276.402 329.272 278.541 331.839 278.541C334.405 278.541 336.544 276.402 336.544 273.836C336.544 268.788 340.65 264.596 345.783 264.596C348.349 264.596 350.488 262.458 350.488 259.891C350.488 257.325 348.349 255.186 345.783 255.186ZM331.839 261.431C331.325 260.918 330.812 260.319 330.299 259.891C330.812 259.378 331.411 258.865 331.839 258.352C332.352 258.865 332.865 259.464 333.379 259.891C332.865 260.405 332.352 260.918 331.839 261.431ZM415.504 324.565C411.911 324.565 408.916 327.473 408.916 331.152C408.916 333.718 406.778 335.857 404.211 335.857C401.645 335.857 399.506 333.718 399.506 331.152C399.506 327.559 396.598 324.565 392.919 324.565C390.353 324.565 388.214 322.426 388.214 319.86C388.214 317.293 390.353 315.155 392.919 315.155C396.512 315.155 399.506 312.246 399.506 308.568C399.506 302.408 408.916 302.408 408.916 308.568C408.916 312.161 411.825 315.155 415.504 315.155C421.663 315.155 421.663 324.479 415.504 324.565Z" fill="white"/>
</svg>
